<svg xmlns="http://www.w3.org/2000/svg" width="1920" height="300" viewBox="0 0 1920 300" fill="none"><rect width="1920" height="300" fill="white"></rect><g clip-path="url(#clip0_1505_7228)"><path opacity="0.1" d="M650.818 278.919C970.581 306.586 1298.5 297.081 1533 288C1767.5 278.919 1835.5 269.223 1920 300V-601.463H0V296.277C144.759 262.897 351.988 253.063 650.818 278.919Z" fill="url(#paint0_linear_1505_7228)"></path><g clip-path="url(#clip1_1505_7228)"><path d="M1920 0H0V300H1920V0Z" fill="#303360"></path><path opacity="0.2" d="M1474.53 -43C1471.97 -11.6357 1482.14 21.1369 1494.04 51.169C1509.81 90.9263 1528.91 131.521 1525.63 173.924C1524.01 194.84 1516.78 215.356 1504.82 232.96C1482.68 265.58 1446.31 286.439 1411.19 306.156C1334.76 349.092 1258.33 392.046 1181.9 434.982C1134.64 461.531 1086.08 489.184 1053.4 531.206C1032.99 557.47 1029.56 597.779 1030.04 630H1920V-43H1474.51H1474.53Z" fill="#6D66FF"></path><path d="M1030.12 622.662C1053.07 568.938 1097.94 523.346 1149.2 489.18C1212.28 447.126 1285.19 419.85 1356.46 391.011C1427.73 362.173 1499.3 330.699 1556.63 282.151C1594.02 250.489 1626.32 205.819 1616.87 159.812C1610.02 126.418 1582.73 100.121 1555.58 77.155C1528.44 54.1707 1499.13 31.0357 1485.76 -0.64549C1480.21 -13.8036 1478.66 -28.9007 1481.17 -43H1919.6V622.662H1030.12Z" fill="url(#paint1_linear_1505_7228)"></path><path d="M1919.6 302.971C1882.56 255.515 1818.99 225.584 1759.09 230.799C1731.08 233.227 1701.21 244.277 1687.69 268.974C1677.58 287.422 1678.52 309.804 1672.46 329.965C1661.32 367.124 1627.11 393.383 1590.76 406.73C1554.41 420.076 1515.22 422.9 1476.97 428.811C1438.7 434.721 1399.49 444.548 1369.5 469.076C1341.76 491.778 1324.4 525.435 1316.34 560.411C1311.64 580.816 1309.89 601.692 1309.91 622.663H1919.59V302.971H1919.6Z" fill="url(#paint2_linear_1505_7228)"></path><path d="M1550.39 -43C1548.03 -17.0414 1560.48 3.08171 1581.11 20.9836C1603.3 40.2407 1633.95 48.1281 1661.43 60.2132C1726.54 88.8261 1776.95 144.64 1795.8 208.943C1802.52 231.853 1805.47 255.891 1815.84 277.614C1833.2 313.983 1877.34 339.697 1919.6 345.739V-43H1550.39Z" fill="url(#paint3_linear_1505_7228)"></path><path opacity="0.2" d="M1454.63 -43C1440.96 -24.5146 1433.79 -1.88789 1435.09 20.4941C1436.78 50.1234 1453.25 78.7551 1478.85 96.6381C1494.21 107.368 1512.49 114.314 1527.04 125.966C1575.35 164.65 1570.77 243.862 1625.21 274.809C1656.95 292.862 1698.27 287.252 1733.04 274.866C1767.81 262.48 1800.3 243.938 1836.76 236.803C1864.11 231.457 1897.5 236.163 1919.62 250.526V-43H1454.65H1454.63Z" fill="#6D66FF"></path><path opacity="0.35" d="M1896.04 6.60226C1896.04 12.8895 1890.95 17.9721 1884.67 17.9721C1878.38 17.9721 1873.3 12.8895 1873.3 6.60226C1873.3 0.314965 1878.38 -4.76758 1884.67 -4.76758C1890.95 -4.76758 1896.04 0.314965 1896.04 6.60226Z" fill="#6D66FF"></path><path opacity="0.35" d="M1734.86 133.703C1748.67 133.703 1759.86 122.511 1759.86 108.705C1759.86 94.8983 1748.67 83.7061 1734.86 83.7061C1721.06 83.7061 1709.86 94.8983 1709.86 108.705C1709.86 122.511 1721.06 133.703 1734.86 133.703Z" fill="#6D66FF"></path><path d="M1636.13 91.1607C1632.01 91.1607 1628.67 87.81 1628.67 83.7063C1628.67 79.6027 1632.03 76.252 1636.13 76.252C1640.23 76.252 1643.58 79.6027 1643.58 83.7063C1643.58 87.81 1640.23 91.1607 1636.13 91.1607ZM1636.13 78.6991C1633.38 78.6991 1631.14 80.9392 1631.14 83.6875C1631.14 86.4359 1633.38 88.6759 1636.13 88.6759C1638.88 88.6759 1641.12 86.4359 1641.12 83.6875C1641.12 80.9392 1638.88 78.6991 1636.13 78.6991Z" fill="white"></path><path d="M1701.83 221.519H1696.84V216.53C1696.84 215.853 1696.29 215.307 1695.61 215.307C1694.94 215.307 1694.39 215.853 1694.39 216.53V221.519H1689.4C1688.72 221.519 1688.18 222.065 1688.18 222.742C1688.18 223.42 1688.72 223.966 1689.4 223.966H1694.39V228.954C1694.39 229.632 1694.94 230.178 1695.61 230.178C1696.29 230.178 1696.84 229.632 1696.84 228.954V223.966H1701.83C1702.5 223.966 1703.05 223.42 1703.05 222.742C1703.05 222.065 1702.5 221.519 1701.83 221.519Z" fill="white"></path><path d="M1844.25 138.014C1841.52 138.014 1840.16 136 1839.07 134.381C1838.02 132.8 1837.3 131.84 1835.95 131.84C1834.59 131.84 1833.88 132.8 1832.82 134.381C1831.73 136 1830.38 138.014 1827.67 138.014C1824.95 138.014 1823.58 136 1822.49 134.381C1821.43 132.8 1820.72 131.84 1819.36 131.84C1818.01 131.84 1817.29 132.8 1816.24 134.381C1815.15 136 1813.79 138.014 1811.08 138.014C1808.37 138.014 1807 136 1805.92 134.381C1804.87 132.8 1804.15 131.84 1802.8 131.84C1802.12 131.84 1801.58 131.294 1801.58 130.616C1801.58 129.938 1802.12 129.393 1802.8 129.393C1805.53 129.393 1806.88 131.407 1807.96 133.026C1809.01 134.607 1809.73 135.567 1811.08 135.567C1812.44 135.567 1813.15 134.607 1814.21 133.026C1815.3 131.407 1816.65 129.393 1819.36 129.393C1822.07 129.393 1823.45 131.407 1824.54 133.026C1825.59 134.607 1826.31 135.567 1827.67 135.567C1829.02 135.567 1829.74 134.607 1830.79 133.026C1831.88 131.407 1833.24 129.393 1835.95 129.393C1838.66 129.393 1840.03 131.407 1841.12 133.026C1842.18 134.607 1842.89 135.567 1844.25 135.567C1845.61 135.567 1846.32 134.607 1847.37 133.026C1848.47 131.407 1849.82 129.393 1852.55 129.393C1853.23 129.393 1853.77 129.938 1853.77 130.616C1853.77 131.294 1853.23 131.84 1852.55 131.84C1851.2 131.84 1850.48 132.8 1849.43 134.381C1848.33 136 1846.98 138.014 1844.25 138.014Z" fill="white"></path><path opacity="0.2" d="M1053.35 622.662H1051.26C1078.09 559.902 1131.23 514.856 1170.91 488.408C1227.42 450.741 1292.66 424.556 1355.74 399.238C1363.29 396.207 1370.82 393.195 1378.33 390.145C1447.64 362.116 1520.15 330.623 1578.26 281.436C1598.84 264.004 1615.25 244.804 1625.74 225.904C1638.33 203.202 1642.51 181.008 1638.2 160C1631.54 127.529 1604.96 101.344 1577.21 77.8515C1575.29 76.2326 1573.37 74.6138 1571.45 72.9949C1545.98 51.5541 1519.65 29.3603 1507.15 -0.287828C1501.57 -13.5024 1499.9 -28.5618 1502.48 -43H1504.36C1501.84 -28.9195 1503.42 -13.8977 1508.86 -1.00315C1521.19 28.2497 1547.35 50.274 1572.65 71.5831C1574.57 73.202 1576.51 74.8208 1578.41 76.4397C1590.86 86.9813 1605.16 99.6688 1616.8 113.975C1629.28 129.317 1636.86 144.245 1640.03 159.605C1644.43 181.084 1640.18 203.673 1627.38 226.789C1616.8 245.877 1600.23 265.266 1579.49 282.829C1521.17 332.204 1448.51 363.754 1379.07 391.84C1371.56 394.889 1364.01 397.901 1356.48 400.932C1293.47 426.213 1228.32 452.36 1171.98 489.914C1132.52 516.211 1080.04 560.298 1053.41 622.643L1053.35 622.662Z" fill="white"></path><path opacity="0.2" d="M342.071 609C345.135 571.298 332.922 531.902 318.628 495.801C299.69 448.01 276.751 399.212 280.684 348.24C282.629 323.098 291.32 298.436 305.683 277.274C332.282 238.062 375.966 212.988 418.14 189.286C509.945 137.674 601.749 86.0395 693.554 34.4275C750.32 2.51313 808.642 -30.7281 847.888 -81.242C872.406 -112.813 876.523 -161.268 875.951 -200H-192.999V609H342.093H342.071Z" fill="#6D66FF"></path><path d="M669.398 -92.9801C645.269 -36.486 598.078 11.4567 544.177 47.3841C477.845 91.6055 401.18 120.288 326.238 150.613C251.295 180.939 176.035 214.036 115.741 265.086C76.4284 298.381 42.4607 345.354 52.3977 393.732C59.603 428.848 88.3053 456.501 116.849 480.65C145.393 504.82 176.214 529.147 190.268 562.462C196.107 576.298 197.73 592.174 195.098 607H-265.941V-92.9801H669.398Z" fill="url(#paint4_linear_1505_7228)"></path><path d="M-265.941 243.193C-226.985 293.096 -160.138 324.569 -97.1518 319.086C-67.6973 316.533 -36.2831 304.913 -22.0705 278.943C-11.4407 259.544 -12.4305 236.008 -6.05659 214.808C5.66187 175.733 41.6288 148.119 79.8524 134.085C118.076 120.05 159.289 117.081 199.511 110.866C239.754 104.65 280.986 94.3174 312.519 68.5249C341.697 44.6525 359.947 9.25959 368.419 -27.519C373.368 -48.9764 375.209 -70.9287 375.189 -92.98H-265.921V243.193H-265.941Z" fill="url(#paint5_linear_1505_7228)"></path><path opacity="0.3" d="M700.021 -92.9806C697.369 -51.0159 676.466 -8.99176 641.944 17.0977C582.876 61.7545 499.759 59.3198 425.231 49.6798C350.704 40.0398 272.119 25.8073 202.442 52.9656C167.643 66.525 137.832 89.5859 104.518 106.213C32.2868 142.279 -56.5913 146.06 -131.871 116.269C-188.325 93.9209 -235.1 54.9649 -265.999 4.48844V-93.0004H700.021V-92.9806Z" fill="#6D66FF"></path><path opacity="0.3" d="M1571.83 411.983C1564.34 356.862 1528.54 303.391 1472.9 272.233C1377.69 218.9 1248.98 229.978 1134.17 249.751C1019.36 269.523 898.629 295.74 788.379 266.499C733.317 251.901 685.227 224.294 632.22 205.507C517.293 164.755 379.146 168.177 264.793 214.61C179.036 249.44 109.629 305.268 65.7709 374.795L73.6201 503.429L1571.83 412.009L1571.83 411.983Z" fill="#6D66FF"></path><path d="M122.312 607C124.786 579.703 111.702 558.543 90.0072 539.718C66.6692 519.468 34.4434 511.174 5.54316 498.466C-62.9267 468.378 -115.937 409.686 -135.751 342.068C-142.818 317.978 -145.926 292.7 -156.833 269.857C-175.083 231.613 -221.502 204.574 -265.941 198.22V607H122.312Z" fill="url(#paint6_linear_1505_7228)"></path><path opacity="0.2" d="M223.008 607C237.379 587.562 244.921 563.768 243.555 540.232C241.773 509.076 224.453 478.968 197.532 460.163C181.38 448.88 162.159 441.576 146.858 429.323C96.0646 388.645 100.875 305.349 43.6284 272.806C10.2546 253.823 -33.1949 259.722 -69.7557 272.747C-106.316 285.772 -140.482 305.269 -178.824 312.772C-207.586 318.393 -242.702 313.445 -265.961 298.341V607H222.988H223.008Z" fill="#6D66FF"></path><path opacity="0.45" d="M277.398 68.2565C266.772 72.6256 261.699 84.7822 266.068 95.4089C270.437 106.036 282.594 111.108 293.221 106.739C303.847 102.37 308.92 90.2135 304.551 79.5867C300.182 68.96 288.025 63.8873 277.398 68.2565Z" fill="#6D66FF"></path><path d="M341.815 67.9707H347.061V73.2163C347.061 73.9289 347.635 74.5029 348.348 74.5029C349.06 74.5029 349.634 73.9289 349.634 73.2163V67.9707H354.88C355.592 67.9707 356.167 67.3967 356.167 66.6841C356.167 65.9715 355.592 65.3974 354.88 65.3974H349.634V60.1518C349.634 59.4392 349.06 58.8651 348.348 58.8651C347.635 58.8651 347.061 59.4392 347.061 60.1518V65.3974H341.815C341.103 65.3974 340.529 65.9715 340.529 66.6841C340.529 67.3967 341.103 67.9707 341.815 67.9707Z" fill="white"></path><path d="M105.17 160.471C108.04 160.471 109.465 162.589 110.613 164.292C111.722 165.954 112.474 166.964 113.899 166.964C115.325 166.964 116.077 165.954 117.185 164.292C118.333 162.589 119.759 160.471 122.609 160.471C125.459 160.471 126.904 162.589 128.053 164.292C129.161 165.954 129.913 166.964 131.338 166.964C132.764 166.964 133.516 165.954 134.624 164.292C135.772 162.589 137.198 160.471 140.048 160.471C142.899 160.471 144.344 162.589 145.472 164.292C146.58 165.954 147.333 166.964 148.758 166.964C149.47 166.964 150.044 167.538 150.044 168.25C150.044 168.963 149.47 169.537 148.758 169.537C145.888 169.537 144.462 167.419 143.334 165.717C142.226 164.054 141.473 163.044 140.048 163.044C138.623 163.044 137.871 164.054 136.762 165.717C135.614 167.419 134.189 169.537 131.338 169.537C128.488 169.537 127.043 167.419 125.915 165.717C124.806 164.054 124.054 163.044 122.629 163.044C121.204 163.044 120.451 164.054 119.343 165.717C118.195 167.419 116.77 169.537 113.919 169.537C111.069 169.537 109.624 167.419 108.476 165.717C107.367 164.054 106.615 163.044 105.19 163.044C103.764 163.044 103.012 164.054 101.904 165.717C100.756 167.419 99.3305 169.537 96.4602 169.537C95.7476 169.537 95.1735 168.963 95.1735 168.25C95.1735 167.538 95.7476 166.964 96.4602 166.964C97.8854 166.964 98.6376 165.954 99.7461 164.292C100.894 162.589 102.319 160.471 105.19 160.471H105.17Z" fill="white"></path><path opacity="0.2" d="M644.972 -92.9801H647.169C618.962 -26.9846 563.081 20.3842 521.354 48.1957C461.93 87.8049 393.322 115.339 326.99 141.963C319.052 145.15 311.134 148.317 303.236 151.524C230.352 180.998 154.103 214.115 92.9966 265.838C71.361 284.168 54.1 304.359 43.0744 324.233C29.8317 348.105 25.4372 371.443 29.9702 393.534C36.9776 427.68 64.9277 455.214 94.1051 479.918C96.1242 481.62 98.1432 483.323 100.162 485.025C126.945 507.571 154.637 530.909 167.781 562.086C173.64 575.982 175.402 591.817 172.69 607H170.711C173.363 592.194 171.7 576.397 165.98 562.838C153.014 532.077 125.499 508.917 98.8954 486.51C96.8763 484.807 94.8375 483.105 92.8382 481.403C79.7539 470.318 64.71 456.976 52.4769 441.932C39.353 425.799 31.3757 410.102 28.0502 393.95C23.4182 371.364 27.8918 347.61 41.3522 323.302C52.4768 303.231 69.8961 282.842 91.7099 264.374C153.034 212.452 229.441 179.276 302.464 149.742C310.362 146.536 318.3 143.369 326.218 140.182C392.471 113.597 460.98 86.1025 520.226 46.6121C561.715 18.9589 616.903 -27.4002 644.912 -92.9603L644.972 -92.9801Z" fill="white"></path></g></g><defs><linearGradient id="paint0_linear_1505_7228" x1="960.004" y1="-601.463" x2="960.004" y2="300" gradientUnits="userSpaceOnUse"><stop stop-color="#7094FB"></stop><stop offset="1" stop-color="#F31E61"></stop></linearGradient><linearGradient id="paint1_linear_1505_7228" x1="1030.12" y1="289.831" x2="1919.6" y2="289.831" gradientUnits="userSpaceOnUse"><stop stop-color="#6D66FF"></stop><stop offset="1" stop-color="#2C2A89"></stop></linearGradient><linearGradient id="paint2_linear_1505_7228" x1="1309.93" y1="426.439" x2="1919.6" y2="426.439" gradientUnits="userSpaceOnUse"><stop stop-color="#6D66FF"></stop><stop offset="1" stop-color="#2C2A89"></stop></linearGradient><linearGradient id="paint3_linear_1505_7228" x1="1550.1" y1="151.379" x2="738.139" y2="151.379" gradientUnits="userSpaceOnUse"><stop stop-color="#6D66FF"></stop><stop offset="1" stop-color="#2C2A89"></stop></linearGradient><linearGradient id="paint4_linear_1505_7228" x1="669.398" y1="257.01" x2="-265.941" y2="257.01" gradientUnits="userSpaceOnUse"><stop stop-color="#6D66FF"></stop><stop offset="1" stop-color="#2C2A89"></stop></linearGradient><linearGradient id="paint5_linear_1505_7228" x1="375.17" y1="113.36" x2="-265.941" y2="113.36" gradientUnits="userSpaceOnUse"><stop stop-color="#6D66FF"></stop><stop offset="1" stop-color="#2C2A89"></stop></linearGradient><linearGradient id="paint6_linear_1505_7228" x1="122.609" y1="402.6" x2="976.434" y2="402.6" gradientUnits="userSpaceOnUse"><stop stop-color="#6D66FF"></stop><stop offset="1" stop-color="#2C2A89"></stop></linearGradient><clipPath id="clip0_1505_7228"><rect width="1920" height="300" fill="white"></rect></clipPath><clipPath id="clip1_1505_7228"><rect width="1920" height="300" fill="white"></rect></clipPath></defs></svg>