<svg width="577" height="614" viewBox="0 0 577 614" fill="none" xmlns="http://www.w3.org/2000/svg">
<g clip-path="url(#clip0_1267_1942)">
<path d="M56.3595 208.637C-2.85685 301.464 63.8126 382.49 105.674 420.949C147.536 459.431 167.468 583.473 287.705 605.917C416.684 629.994 464.882 563.674 447.527 476.607C430.172 389.541 496.305 336.807 557.089 265.176C617.873 193.567 533.506 41.1685 386.184 127.891C265.904 198.705 136.861 82.4228 56.3595 208.637Z" fill="url(#paint0_linear_1267_1942)"/>
<path d="M278.469 51.3156C171.528 77.285 188.517 177.078 156.579 224.137C124.618 271.196 4.9185 308.989 0.23617 431.333C-4.76833 562.556 67.7862 600.629 151.316 570.768C234.846 540.908 336.354 525.601 415.975 575.369C495.618 625.136 633.961 519.388 526.783 386.145C439.279 277.365 529.532 -9.69529 278.448 51.3156H278.469Z" fill="url(#paint1_linear_1267_1942)"/>
<path d="M5.28369 495.956C26.5045 578.701 83.5945 594.975 151.338 570.768C234.868 540.908 336.376 525.601 415.997 575.369C471.54 610.088 555.629 569.113 565.058 495.956H5.28369Z" fill="url(#paint2_linear_1267_1942)"/>
<path style="mix-blend-mode:multiply" opacity="0.54" d="M293.462 535.77C153.421 535.77 39.9072 543.896 39.9072 553.935C39.9072 560.342 86.0861 565.952 155.87 569.199C235.427 541.488 330.383 527.6 407.126 570.188C463.679 568.145 508.118 564.641 530.692 560.363C534.301 557.138 537.737 553.677 540.916 549.958C515.614 541.832 414.45 535.77 293.462 535.77Z" fill="url(#paint3_linear_1267_1942)"/>
<path d="M290.218 260.446C290.197 259.372 289.832 258.254 289.574 257.2C289.488 256.899 288.93 253.954 288.951 253.632C289.252 248.924 291.421 236.046 291.421 236.046L278.491 234.542C278.491 234.542 279.178 245.957 276.665 252.363C270.608 254.964 259.955 258.146 259.955 258.146C259.955 258.146 248.206 258.834 247.562 259.028C246.917 259.221 245.371 259.479 243.502 260.898C243.502 260.898 241.849 263.757 256.046 267.519C256.046 267.519 262.146 269.54 272.327 269.003C274.517 269.046 276.708 269.067 278.899 269.11C281.154 269.153 287.856 269.626 288.801 269.067C289.166 268.852 289.424 268.616 289.595 268.379C290.97 266.466 290.261 262.704 290.218 260.446Z" fill="url(#paint4_linear_1267_1942)"/>
<path d="M289.552 257.179C289.509 257.007 289.295 255.932 289.144 255.007C288.629 255.222 288.113 255.437 287.598 255.609C281.799 257.802 275.849 256.899 270.071 255.05C269.964 255.007 269.857 254.964 269.771 254.943C264.766 256.684 259.955 258.125 259.955 258.125C259.955 258.125 248.206 258.812 247.562 259.006C246.918 259.199 245.371 259.457 243.502 260.876C243.502 260.876 241.849 263.736 256.046 267.498C256.046 267.498 262.146 269.518 272.327 268.981C274.517 269.024 276.708 269.045 278.899 269.088C281.154 269.131 287.856 269.604 288.801 269.045C289.166 268.83 289.424 268.594 289.595 268.358C290.97 266.444 290.261 262.682 290.218 260.425C290.197 259.35 289.832 258.232 289.574 257.179H289.552Z" fill="url(#paint5_linear_1267_1942)"/>
<path d="M285.987 164.523C285.987 164.523 282.959 164.029 282.228 172.155C281.498 180.26 277.911 246.215 277.911 246.215L289.789 248.859C289.789 248.859 305.21 202.273 299.519 173.273C299.519 173.273 297.585 160.439 285.987 164.545V164.523Z" fill="url(#paint6_linear_1267_1942)"/>
<path d="M328.386 118.174C327.913 117.464 327.355 116.819 326.71 116.239C324.047 113.767 320.159 113.724 316.68 112.713C307.337 109.983 297.478 129.116 293.139 140.016C288.479 151.689 282.744 160.395 283.002 172.972C283.087 176.691 283.99 180.904 287.211 182.732C289.703 184.151 292.903 183.678 295.395 182.237C297.865 180.797 299.755 178.561 301.538 176.304C309.077 166.802 315.799 156.655 322.608 146.615C325.744 141.993 328.966 137.242 330.319 131.825C331.479 127.246 331.028 122 328.407 118.195L328.386 118.174Z" fill="url(#paint7_linear_1267_1942)"/>
<path d="M294.814 96.4395C296.167 96.4395 301.194 76.296 301.151 74.8127C301.022 68.3418 299.411 35.1921 285.879 47.7684C283.796 49.7032 283.13 52.3689 283.066 54.7552C282.743 65.4396 283.409 88.6788 283.409 88.6788L294.814 96.4395Z" fill="url(#paint8_linear_1267_1942)"/>
<path d="M292.946 88.9367C291.142 86.9804 288.328 88.0983 285.965 88.6572C280.381 89.9901 261.351 112.154 261.351 112.154L256.712 114.025L251.686 114.842L248.485 115.358C247.562 115.379 246.638 115.293 245.758 114.992C245.328 114.842 244.898 114.562 244.447 114.519C244.104 114.476 243.717 114.648 243.588 114.971C243.502 115.207 243.545 115.465 243.653 115.702C243.996 116.604 244.855 117.314 245.822 117.464C246.187 117.529 246.552 117.507 246.939 117.529C247.304 117.529 247.691 117.593 248.013 117.744C248.356 117.916 248.636 118.195 248.7 118.561C248.786 119.055 248.485 119.292 248.099 119.421C247.626 119.593 247.175 119.915 246.746 120.173L245.929 120.668C245.672 120.797 245.414 120.947 245.156 121.14C244.791 121.355 244.426 121.57 244.061 121.785C240.667 123.634 238.82 122.731 237.016 124.473C235.963 125.505 237.896 125.548 237.66 127.138C237.531 128.041 242.557 128.17 241.548 128.987C240.538 129.826 243.094 131.459 247.454 131.653C251.256 131.825 253.468 130.557 255.638 129.31C255.809 129.245 255.96 129.159 256.089 129.052L266.764 118.69C268.16 117.228 276.665 111.552 278.34 110.521C280.188 109.381 300.743 97.3639 292.946 88.9152V88.9367Z" fill="url(#paint9_linear_1267_1942)"/>
<path d="M267.515 118.711C270.845 116.239 276.493 112.498 277.868 111.638C279.887 110.392 302.354 97.2564 293.848 88.0123C291.872 85.8625 288.801 87.0879 286.223 87.7113C281.326 88.8937 266.978 104.695 261.48 110.907C263.649 113.38 265.69 115.959 267.515 118.711Z" fill="url(#paint10_linear_1267_1942)"/>
<path d="M384.23 228.78C383.65 227.877 382.748 227.125 381.953 226.351C381.739 226.136 379.698 223.922 379.548 223.642C377.314 219.472 372.395 207.39 372.395 207.39L360.604 212.936C360.604 212.936 367.198 222.266 368.443 229.038C364.663 234.434 357.274 242.775 357.274 242.775C357.274 242.775 347.652 249.569 347.222 250.063C346.793 250.558 345.612 251.611 344.752 253.782C344.752 253.782 344.838 257.071 358.907 252.793C358.907 252.793 365.157 251.289 373.534 245.463C375.402 244.345 377.292 243.205 379.161 242.087C381.094 240.927 387.044 237.809 387.538 236.842C387.731 236.476 387.838 236.133 387.86 235.832C388.032 233.467 385.433 230.651 384.209 228.78H384.23Z" fill="url(#paint11_linear_1267_1942)"/>
<path d="M381.975 226.351C381.846 226.222 381.116 225.427 380.493 224.739C380.171 225.19 379.827 225.642 379.505 226.072C375.725 231.016 370.205 233.381 364.319 234.843C364.212 234.864 364.105 234.886 363.997 234.907C360.668 239.013 357.339 242.775 357.339 242.775C357.339 242.775 347.717 249.569 347.287 250.063C346.857 250.558 345.676 251.611 344.817 253.782C344.817 253.782 344.903 257.072 358.971 252.793C358.971 252.793 365.222 251.289 373.598 245.463C375.467 244.345 377.357 243.205 379.226 242.088C381.159 240.927 387.108 237.809 387.602 236.842C387.796 236.477 387.903 236.133 387.924 235.832C388.096 233.467 385.497 230.651 384.273 228.78C383.693 227.877 382.791 227.125 381.996 226.351H381.975Z" fill="url(#paint12_linear_1267_1942)"/>
<path d="M334.808 159.729C334.808 159.729 331.973 160.912 335.624 168.178C339.275 175.466 363.331 224.266 363.331 224.266L378.517 217.343C367.606 182.925 369.925 178.088 352.42 159.127C352.42 159.127 342.519 150.12 334.808 159.729Z" fill="url(#paint13_linear_1267_1942)"/>
<path d="M332.961 101.814C327.827 100.718 322.93 103.039 319.773 107.081C315.542 112.52 314.382 119.743 315.993 126.407C318.183 135.372 322.114 144.745 326.216 152.979C328.429 157.407 331.156 161.922 334.142 166.028C336.655 169.489 339.104 174.434 343.636 175.767C346.943 176.734 351.626 175.294 353.473 172.241C355.406 169.059 354.869 164.867 354.332 161.363C353.709 157.386 353.236 153.366 352.635 149.367C351.583 142.531 350.272 135.759 349.263 128.923C348.296 122.344 346.857 115.401 343.421 109.618C340.951 105.469 337.063 102.674 332.961 101.814Z" fill="url(#paint14_linear_1267_1942)"/>
<path d="M349.735 118.711C346.449 111.939 340.263 85.6905 338.674 78.1878C337.063 70.6206 335.388 63.0748 333.927 55.4861C333.304 52.2614 333.025 48.8432 332.252 45.6616C331.221 41.405 328.128 38.6533 324.605 36.5895C321.534 34.8051 317.754 32.8273 314.489 31.7739C314.36 31.7309 314.231 31.688 314.102 31.645C312.835 31.2365 312.062 31.7095 310.773 31.559C305.361 30.914 298.939 32.9993 295.18 37.0194C292.774 39.5992 290.369 42.1789 287.963 44.7586C285.407 47.4889 284.569 51.8099 285.837 55.83C288.586 64.5797 291.378 73.2863 294.321 81.9714C295.867 86.5075 297.886 90.721 298.724 95.4721C299.819 101.663 297.671 110.671 300.743 119.184C301.817 122.194 302.783 121.055 305.318 120.926C311.912 120.56 303.535 127.461 310.129 127.697C317.41 127.955 351.625 122.581 349.757 118.69L349.735 118.711Z" fill="url(#paint15_linear_1267_1942)"/>
<path d="M300.485 49.5526L305.704 39.6851L297.585 40.8674L300.485 49.5526Z" fill="url(#paint16_linear_1267_1942)"/>
<path d="M307.444 21.9495L310.365 31.344C310.365 31.344 311.761 43.3398 297.865 41.1041L293.655 26.3135L307.423 21.9495H307.444Z" fill="url(#paint17_linear_1267_1942)"/>
<path d="M300.485 49.5528L296.103 47.2311L297.263 38.8899C297.263 38.8899 300.613 49.3163 300.485 49.5313V49.5528Z" fill="url(#paint18_linear_1267_1942)"/>
<path d="M297.263 38.9113L296.103 47.231L290.519 49.9397L297.069 38.2234L297.263 38.9113Z" fill="url(#paint19_linear_1267_1942)"/>
<path d="M296.06 9.13672L305.06 24.2712L306.499 26.2275C306.477 36.9979 299.175 42.4154 295.072 41.2115C290.97 40.0076 276.493 21.3045 276.493 21.3045L296.06 9.13672Z" fill="url(#paint20_linear_1267_1942)"/>
<path d="M285.579 28.4417L290.776 33.9236L287.641 36.8903L285.579 28.4417Z" fill="#FFB5BE"/>
<path d="M290.691 1.89191C286.008 -0.773828 279.436 5.24557 276.837 9.82461C273.057 16.5319 266.184 25.5825 270.372 26.8294C280.682 29.8606 290.562 14.1457 290.562 14.1457C290.562 14.1457 290.798 16.9189 294.986 18.8107C297.285 19.8426 299.518 22.2074 301.065 24.1207C301.731 24.9591 303.105 24.4861 303.084 23.4113L302.826 19.3697L309.635 27.2809C308.776 21.6484 307.508 17.2629 305.64 11.8024C300.528 -6.40627 290.734 1.9134 290.734 1.9134L290.691 1.89191Z" fill="url(#paint21_linear_1267_1942)"/>
<path d="M303.105 15.2207C305.661 15.8656 307.551 20.2297 305.038 24.2713L300.313 17.8434C300.012 16.661 301.43 14.7907 303.105 15.2207Z" fill="url(#paint22_linear_1267_1942)"/>
<path d="M314.124 31.2581L308.604 48.4563L301.172 44.9522L310.451 29.7102L314.124 31.2581Z" fill="url(#paint23_linear_1267_1942)"/>
<path d="M301.172 44.9521L300.485 49.5527L303.47 45.9625L301.172 44.9521Z" fill="url(#paint24_linear_1267_1942)"/>
<path d="M264.18 106.413L259.047 110.132L267.234 121.451L272.366 117.732L264.18 106.413Z" fill="url(#paint25_linear_1267_1942)"/>
<path d="M265.797 222.804H279.608L269.878 233.359C267.687 235.724 263.95 235.724 261.759 233.359L252.029 222.804H265.84H265.797Z" fill="#455E6A"/>
<path d="M217.9 116.046C217.9 88.9153 240.409 67.0735 267.73 68.1484C292.108 69.1158 312.105 88.6573 313.587 113.014C314.51 127.934 308.604 141.499 298.702 150.872C288.35 160.675 282.572 174.391 282.572 188.665V190.278H249.022V188.665C249.022 174.176 242.837 160.525 232.441 150.442C223.463 141.736 217.9 129.546 217.9 116.046Z" fill="url(#paint26_linear_1267_1942)"/>
<path d="M277.46 199.78H254.134V133.76C250.204 132.728 248.185 131.159 248.185 129.073C248.185 126.257 249.28 123.333 251.363 120.646C252.137 119.636 253.425 119.249 254.628 119.657C255.809 120.066 256.583 121.141 256.583 122.387V131.803C258.988 132.255 262.06 132.556 265.797 132.556C269.534 132.556 272.606 132.255 275.011 131.803V122.387C275.011 121.119 275.784 120.044 276.966 119.657C278.169 119.249 279.436 119.636 280.231 120.646C282.314 123.355 283.409 126.279 283.409 129.073C283.409 131.481 280.746 132.9 277.46 133.76V199.78ZM256.583 197.329H275.011V134.276C271.188 134.942 267.193 135.007 265.797 135.007C262.446 135.007 259.267 134.749 256.583 134.297V197.329ZM277.911 121.936C277.911 121.936 277.782 121.936 277.739 121.957C277.61 122 277.438 122.108 277.438 122.366V131.202C279.737 130.535 280.918 129.718 280.918 129.052C280.918 126.193 279.457 123.699 278.255 122.108C278.147 121.957 277.997 121.914 277.889 121.914L277.911 121.936ZM253.683 121.936C253.576 121.936 253.447 121.979 253.318 122.129C252.094 123.72 250.655 126.193 250.655 129.073C250.655 129.74 251.857 130.557 254.134 131.223V122.387C254.134 122.129 253.984 122.022 253.833 121.979C253.79 121.979 253.726 121.957 253.662 121.957L253.683 121.936Z" fill="white"/>
<path d="M282.7 190.278H248.936C247.228 190.278 245.843 191.664 245.843 193.373V223.879C245.843 225.588 247.228 226.974 248.936 226.974H282.7C284.409 226.974 285.793 225.588 285.793 223.879V193.373C285.793 191.664 284.409 190.278 282.7 190.278Z" fill="url(#paint27_linear_1267_1942)"/>
<path d="M286.352 194.771H245.264C244.267 194.771 243.459 195.579 243.459 196.577V197.931C243.459 198.928 244.267 199.737 245.264 199.737H286.352C287.349 199.737 288.156 198.928 288.156 197.931V196.577C288.156 195.579 287.349 194.771 286.352 194.771Z" fill="url(#paint28_linear_1267_1942)"/>
<path d="M286.352 203.069H245.264C244.267 203.069 243.459 203.877 243.459 204.875V206.208C243.459 207.205 244.267 208.013 245.264 208.013H286.352C287.349 208.013 288.156 207.205 288.156 206.208V204.875C288.156 203.877 287.349 203.069 286.352 203.069Z" fill="url(#paint29_linear_1267_1942)"/>
<path d="M286.352 211.389H245.264C244.267 211.389 243.459 212.197 243.459 213.194V214.549C243.459 215.546 244.267 216.355 245.264 216.355H286.352C287.349 216.355 288.156 215.546 288.156 214.549V213.194C288.156 212.197 287.349 211.389 286.352 211.389Z" fill="url(#paint30_linear_1267_1942)"/>
<path d="M286.352 219.687H245.264C244.267 219.687 243.459 220.495 243.459 221.493V222.847C243.459 223.844 244.267 224.653 245.264 224.653H286.352C287.349 224.653 288.156 223.844 288.156 222.847V221.493C288.156 220.495 287.349 219.687 286.352 219.687Z" fill="url(#paint31_linear_1267_1942)"/>
<path d="M332.768 93.4083C334.121 93.5158 336.87 69.7392 336.934 68.2559C337.257 61.785 333.927 29.1083 319.558 40.6741C317.346 42.4584 316.487 45.0597 316.251 47.4244C315.177 58.0659 320.396 87.0665 320.396 87.0665L332.768 93.3868V93.4083Z" fill="url(#paint32_linear_1267_1942)"/>
<path d="M330.104 84.8523C327.956 83.2615 324.326 84.5514 322.114 85.5618C316.895 87.948 300.099 118.518 300.099 118.518L295.91 121.248L291.142 123.011L288.092 124.129C287.19 124.322 286.266 124.408 285.343 124.301C284.892 124.236 284.419 124.043 283.968 124.086C283.624 124.129 283.259 124.344 283.195 124.688C283.152 124.946 283.259 125.182 283.388 125.397C283.904 126.236 284.892 126.752 285.858 126.709C286.223 126.709 286.589 126.623 286.954 126.558C287.319 126.494 287.705 126.472 288.049 126.558C288.414 126.644 288.736 126.902 288.887 127.246C289.059 127.719 288.801 127.999 288.457 128.213C288.028 128.471 287.662 128.88 287.276 129.224C287.04 129.439 286.803 129.654 286.567 129.869C286.352 130.041 286.116 130.256 285.901 130.471C285.579 130.75 285.278 131.03 284.956 131.309C281.992 133.781 279.995 133.244 278.556 135.308C277.718 136.512 279.629 136.189 279.715 137.802C279.758 138.726 284.72 137.866 283.882 138.876C283.066 139.887 285.88 141.005 290.175 140.36C293.934 139.801 295.867 138.146 297.757 136.49C297.908 136.404 298.037 136.297 298.144 136.146L306.649 123.935C307.723 122.216 315.005 115.035 316.465 113.702C318.055 112.241 339.361 91.6672 330.083 84.8523H330.104Z" fill="url(#paint33_linear_1267_1942)"/>
<path d="M309.592 121.098C312.492 117.937 317.496 113.057 318.72 111.94C320.525 110.284 340.822 92.742 330.04 84.3579C327.548 82.423 324.649 84.2074 322.114 85.3038C317.346 87.3461 305.984 106.393 301.667 113.853C304.437 116.11 307.101 118.496 309.571 121.098H309.592Z" fill="url(#paint34_linear_1267_1942)"/>
<path d="M302.864 109.585L299.113 114.696L310.364 122.969L314.116 117.858L302.864 109.585Z" fill="url(#paint35_linear_1267_1942)"/>
<path d="M303.965 225.534H227.651V273.926H303.965V225.534Z" fill="url(#paint36_linear_1267_1942)"/>
<path d="M142.875 501.115L388.762 501.115L388.762 255.008L142.875 255.008L142.875 501.115Z" fill="url(#paint37_linear_1267_1942)"/>
<path d="M379.29 264.467H152.304V491.656H379.29V264.467Z" fill="url(#paint38_linear_1267_1942)"/>
<path d="M379.29 264.467H152.304V278.053H379.29V264.467Z" fill="url(#paint39_linear_1267_1942)"/>
<path d="M164.225 491.634H152.304V264.467L164.225 278.053V491.634Z" fill="url(#paint40_linear_1267_1942)"/>
<path d="M367.391 491.634H379.29V264.467L367.391 278.053V491.634Z" fill="url(#paint41_linear_1267_1942)"/>
<path opacity="0.2" d="M301.108 386.961V351.941H281.068C280.403 350.007 279.629 348.115 278.727 346.266L292.882 332.099L268.138 307.333L253.984 321.5C252.158 320.619 250.268 319.845 248.314 319.157V299.1H213.325V319.157C211.392 319.824 209.502 320.597 207.655 321.5L193.5 307.333L168.757 332.099L182.911 346.266C182.031 348.093 181.258 349.985 180.57 351.941H160.531V386.961H180.57C181.236 388.896 182.031 390.788 182.911 392.637L168.757 406.804L193.5 431.569L207.655 417.402C209.48 418.284 211.371 419.058 213.325 419.746V439.803H248.314V419.746C250.247 419.079 252.137 418.305 253.984 417.402L268.138 431.569L292.882 406.804L278.727 392.637C279.608 390.809 280.381 388.918 281.068 386.961H301.108ZM230.83 391.863C218.458 391.863 208.428 381.823 208.428 369.441C208.428 357.058 218.458 347.018 230.83 347.018C243.202 347.018 253.232 357.058 253.232 369.441C253.232 381.823 243.202 391.863 230.83 391.863Z" fill="#FE7146"/>
<path d="M377.421 438.148V415.597H364.513C364.083 414.35 363.589 413.124 363.009 411.942L372.138 402.805L356.222 386.875L347.094 396.012C345.912 395.432 344.688 394.937 343.442 394.507V381.587H320.911V394.507C319.665 394.937 318.441 395.432 317.26 396.012L308.153 386.875L292.237 402.805L301.366 411.92C300.786 413.103 300.292 414.328 299.862 415.575H286.954V438.126H299.862C300.292 439.373 300.786 440.598 301.366 441.781L292.237 450.917L308.153 466.847L317.26 457.711C318.441 458.291 319.665 458.786 320.911 459.216V472.136H343.442V459.216C344.688 458.786 345.912 458.291 347.094 457.711L356.222 466.847L372.138 450.917L363.009 441.781C363.589 440.598 364.083 439.373 364.513 438.126H377.421V438.148ZM332.187 441.308C324.219 441.308 317.775 434.837 317.775 426.883C317.775 418.929 324.24 412.458 332.187 412.458C340.135 412.458 346.6 418.929 346.6 426.883C346.6 434.837 340.135 441.308 332.187 441.308Z" fill="url(#paint42_linear_1267_1942)"/>
<path d="M219.382 501.115H201.812V614H219.382V501.115Z" fill="url(#paint43_linear_1267_1942)"/>
<path d="M339.769 501.115H322.2V614H339.769V501.115Z" fill="url(#paint44_linear_1267_1942)"/>
<path d="M133.124 365.808C131.577 364.109 132.351 360.885 133.016 358.885C134.584 354.199 159.242 337.043 159.242 337.043L161.196 333.195L162.27 328.939L162.958 326.23C163.043 325.435 163.043 324.639 162.85 323.865C162.764 323.478 162.528 323.091 162.528 322.704C162.528 322.403 162.7 322.081 162.979 321.995C163.194 321.93 163.409 321.995 163.602 322.102C164.354 322.468 164.891 323.263 164.955 324.102C164.977 324.424 164.955 324.747 164.934 325.069C164.934 325.392 164.934 325.714 165.041 326.015C165.148 326.316 165.385 326.574 165.707 326.66C166.136 326.767 166.351 326.531 166.501 326.208C166.695 325.822 166.996 325.456 167.253 325.112L167.726 324.446C167.855 324.231 168.005 324.037 168.177 323.822C168.392 323.521 168.606 323.242 168.821 322.941C170.668 320.168 170.024 318.512 171.656 317.093C172.623 316.255 172.515 317.932 173.89 317.846C174.685 317.803 174.406 322.124 175.179 321.328C175.952 320.533 177.176 322.855 177.026 326.595C176.876 329.863 175.651 331.669 174.384 333.453C174.32 333.582 174.234 333.711 174.126 333.819L164.44 342.224C163.065 343.299 157.566 350.2 156.557 351.554C155.44 353.059 139.761 373.181 133.081 365.85L133.124 365.808Z" fill="url(#paint45_linear_1267_1942)"/>
<path d="M121.182 544.455C121.333 543.38 121.805 542.305 122.213 541.273C122.321 540.972 123.223 538.091 123.244 537.769C123.48 533.018 122.793 519.883 122.793 519.883H135.895C135.895 519.883 133.897 531.212 135.659 537.898C141.415 541.187 151.703 545.616 151.703 545.616C151.703 545.616 163.388 547.658 163.989 547.938C164.59 548.217 166.115 548.647 167.834 550.281C167.834 550.281 169.165 553.312 154.517 555.462C154.517 555.462 148.181 556.795 138.064 555.075C135.874 554.86 133.683 554.645 131.492 554.43C129.237 554.215 122.471 553.914 121.612 553.247C121.268 552.99 121.053 552.732 120.903 552.452C119.743 550.367 120.903 546.691 121.204 544.455H121.182Z" fill="url(#paint46_linear_1267_1942)"/>
<path d="M122.213 541.273C122.278 541.101 122.6 540.069 122.879 539.167C123.373 539.446 123.867 539.704 124.34 539.962C129.902 542.843 135.938 542.628 141.93 541.424C142.038 541.402 142.145 541.381 142.253 541.338C147.042 543.638 151.703 545.637 151.703 545.637C151.703 545.637 163.388 547.68 163.989 547.959C164.59 548.239 166.115 548.669 167.834 550.302C167.834 550.302 169.165 553.334 154.517 555.483C154.517 555.483 148.181 556.816 138.064 555.096C135.874 554.881 133.683 554.666 131.492 554.451C129.237 554.236 122.471 553.935 121.612 553.269C121.268 553.011 121.053 552.753 120.903 552.474C119.743 550.388 120.903 546.712 121.204 544.476C121.354 543.402 121.827 542.327 122.235 541.295L122.213 541.273Z" fill="url(#paint47_linear_1267_1942)"/>
<path d="M136.496 449.026C136.496 449.026 139.568 448.897 139.374 457.088C139.159 465.278 139.138 531.212 139.138 531.212L119.657 533.233C119.657 533.233 112.934 484.519 121.955 456.185C121.955 456.185 125.37 443.587 136.496 449.026Z" fill="url(#paint48_linear_1267_1942)"/>
<path d="M113.213 394.98C113.922 394.486 114.674 394.077 115.469 393.733C118.841 392.336 122.535 393.669 126.165 393.948C135.938 394.658 138.472 416.199 138.751 428.001C139.031 440.663 141.372 450.875 136.711 462.656C135.336 466.138 132.974 469.771 129.301 470.373C126.466 470.825 123.588 469.255 121.762 467.02C119.936 464.805 118.948 462.011 118.068 459.259C114.309 447.629 111.56 435.697 108.66 423.83C107.328 418.348 105.975 412.759 106.598 407.17C107.135 402.44 109.39 397.646 113.213 394.98Z" fill="url(#paint49_linear_1267_1942)"/>
<path d="M92.3362 544.412C92.5939 543.358 93.1953 542.348 93.6893 541.359C93.8397 541.08 95.0425 538.306 95.0855 537.984C95.8372 533.276 96.5245 520.162 96.5245 520.162L109.562 521.538C109.562 521.538 106.362 532.609 107.414 539.446C112.784 543.337 122.557 548.819 122.557 548.819C122.557 548.819 133.94 552.086 134.52 552.43C135.1 552.774 136.561 553.355 138.107 555.161C138.107 555.161 139.116 558.321 124.318 558.901C124.318 558.901 117.874 559.546 107.994 556.773C105.846 556.321 103.677 555.87 101.529 555.419C99.3167 554.967 92.6154 553.935 91.8207 553.183C91.52 552.882 91.3052 552.602 91.1978 552.323C90.2528 550.13 91.7992 546.583 92.3362 544.412Z" fill="url(#paint50_linear_1267_1942)"/>
<path d="M93.6893 541.359C93.7752 541.187 94.2048 540.198 94.57 539.317C95.0425 539.639 95.4935 539.962 95.9446 540.263C101.164 543.702 107.199 544.132 113.278 543.573C113.385 543.573 113.493 543.552 113.6 543.53C118.132 546.346 122.535 548.819 122.535 548.819C122.535 548.819 133.919 552.086 134.499 552.43C135.079 552.774 136.539 553.355 138.086 555.161C138.086 555.161 139.095 558.321 124.296 558.901C124.296 558.901 117.853 559.546 107.973 556.773C105.825 556.321 103.655 555.87 101.508 555.418C99.2952 554.967 92.5939 553.935 91.7992 553.183C91.4985 552.882 91.2837 552.602 91.1763 552.323C90.2313 550.13 91.7777 546.583 92.3147 544.412C92.5725 543.358 93.1739 542.348 93.6679 541.359H93.6893Z" fill="url(#paint51_linear_1267_1942)"/>
<path d="M117.659 451.154C117.659 451.154 120.731 451.347 119.657 459.474C118.583 467.6 110.614 533.856 110.614 533.856L93.3027 533.125C93.3027 533.125 90.4675 483.981 102.453 456.765C102.453 456.765 107.178 444.597 117.659 451.175V451.154Z" fill="url(#paint52_linear_1267_1942)"/>
<path d="M100.305 395.475C104.837 392.744 110.249 393.325 114.588 396.12C120.409 399.882 123.888 406.396 124.554 413.253C125.435 422.497 124.769 432.709 123.587 441.888C122.943 446.833 121.848 452.035 120.366 456.915C119.12 461.043 118.411 466.547 114.566 469.298C111.753 471.319 106.813 471.491 104.042 469.191C101.164 466.804 100.262 462.634 99.6388 459.13C98.9085 455.131 98.0493 451.154 97.2976 447.155C96.0304 440.319 95.0638 433.44 93.7536 426.604C92.5079 420.025 91.5843 412.952 92.9374 406.31C93.9255 401.559 96.6962 397.624 100.305 395.432V395.475Z" fill="url(#paint53_linear_1267_1942)"/>
<path d="M131.642 374.321C131.642 374.321 124.232 367.764 128.957 361.874C133.683 355.962 143.391 348.803 159.435 333.367L167.876 342.719C167.876 342.719 140.341 373.719 131.642 374.342V374.321Z" fill="url(#paint54_linear_1267_1942)"/>
<path d="M89.2006 397.689C90.0812 390.165 91.7565 383.199 90.8115 375.568C89.8449 367.85 88.9428 360.111 87.8474 352.415C87.3749 349.147 86.5158 345.793 86.2151 342.526C85.7855 338.14 87.0957 334.485 89.759 331.368C92.0787 328.659 101.1 321.952 102.26 321.393C107.608 318.77 114.867 319.587 119.872 322.791C122.406 324.123 124.919 325.435 127.475 326.746C131.127 328.358 133.597 332.379 133.726 336.85C134.005 346.073 134.22 355.295 134.284 364.496C134.327 369.312 133.769 373.998 134.542 378.792C135.487 384.661 140.212 398.828 140.685 408.073C140.728 408.997 140.062 409.792 139.138 409.9C138.107 410.007 136.733 410.201 135.444 410.566C129.043 412.394 120.452 411.813 113.922 412.974C107.887 414.049 96.9329 416.93 89.6301 416.306C88.9428 416.242 88.4488 415.661 88.4703 414.973C88.5562 411.469 88.7925 401.258 89.2221 397.689H89.2006Z" fill="url(#paint55_linear_1267_1942)"/>
<path style="mix-blend-mode:multiply" d="M128.685 341.176L100.833 344.131L105.367 386.951L133.219 383.996L128.685 341.176Z" fill="url(#paint56_linear_1267_1942)"/>
<path d="M133.919 382.511L106.04 385.478L101.508 342.654L102.281 341.687L134.671 381.544L133.919 382.511Z" fill="url(#paint57_linear_1267_1942)"/>
<path d="M130.118 338.738L102.266 341.692L106.8 384.513L134.652 381.558L130.118 338.738Z" fill="url(#paint58_linear_1267_1942)"/>
<path d="M101.937 311.762L102.259 321.651C102.259 321.651 104.729 332.722 116.156 327.412C116.886 327.068 117.337 326.316 117.294 325.521L116.499 311.354L101.958 311.762H101.937Z" fill="url(#paint59_linear_1267_1942)"/>
<path d="M95.7515 299.487L103.527 315.417L104.386 317.695C113.471 323.607 122.041 320.447 123.287 316.341C124.533 312.235 116.779 289.705 116.779 289.705L95.7515 299.508V299.487Z" fill="url(#paint60_linear_1267_1942)"/>
<path d="M117.981 303.356L119.743 310.773L123.974 309.784L117.981 303.356Z" fill="#FFB5BE"/>
<path d="M91.477 297.251C92.7443 286.588 113.815 286.33 116.285 290.737C119.592 296.606 105.094 299.917 105.094 299.917C105.094 299.917 105.202 299.336 104.472 303.894C104.063 306.409 104.837 309.591 105.61 311.934C105.954 312.966 103.913 314.643 103.011 314.041L101.121 308.989L102.216 314.406V320.619C97.9421 316.792 96.2668 313.589 92.7228 308.989C87.3961 299.164 91.4985 297.251 91.4985 297.251H91.477Z" fill="url(#paint61_linear_1267_1942)"/>
<path d="M96.9756 308.774C96.1165 311.289 98.7369 315.288 103.527 315.395L100.713 307.871C99.8967 306.968 97.5341 307.118 96.9756 308.774Z" fill="url(#paint62_linear_1267_1942)"/>
<path d="M82.5206 383.049C82.5206 383.049 78.9552 380.297 78.139 376.428C76.9577 370.838 77.1295 365.098 78.0101 359.466C78.7404 354.844 79.9432 350.286 81.6185 345.793C83.0791 341.881 87.16 326.424 96.0736 331.562C98.2859 332.851 99.1665 334.958 99.4243 336.915C100.541 345.772 93.0022 377.631 93.0022 377.631C93.0022 377.631 83.7234 382.941 82.5206 383.027V383.049Z" fill="url(#paint63_linear_1267_1942)"/>
<path d="M134.542 357.896C135.1 356.907 134.262 356.521 134.842 355.166C135.422 353.812 134.563 352.93 134.348 351.211C134.134 349.491 132.866 350.437 133.038 348.631C133.103 348.007 132.823 347.599 132.458 347.319C131.986 348.007 131.427 348.781 130.396 349.598C130.117 349.813 129.838 350.007 129.559 350.222C129.344 350.372 129.15 350.523 128.957 350.673C128.742 350.824 128.549 350.996 128.334 351.146C127.991 351.404 127.604 351.619 127.325 351.942C127.089 352.199 126.831 352.35 126.487 352.135C126.229 351.963 126.101 351.662 126.079 351.361C126.079 351.06 126.143 350.759 126.251 350.48C126.358 350.2 126.487 349.921 126.552 349.62C126.723 348.846 126.466 347.964 125.886 347.405C125.735 347.255 125.542 347.126 125.349 347.126C125.07 347.126 124.812 347.362 124.726 347.642C124.618 348.007 124.726 348.416 124.683 348.781C124.64 349.534 124.404 350.286 124.103 350.974L122.707 353.253L120.516 356.821L117.638 359.767C117.638 359.767 114.18 360.863 109.583 362.432V373.224C110.357 372.708 110.894 372.343 111.087 372.192C112.397 371.247 119.356 366.539 120.903 365.937C120.903 365.937 132.093 361.057 132.115 361.057C132.243 360.992 132.351 360.906 132.458 360.799C132.995 360.39 133.511 359.982 134.026 359.509C134.176 358.993 134.176 358.541 134.52 357.918L134.542 357.896Z" fill="url(#paint64_linear_1267_1942)"/>
<path d="M82.5206 383.049C82.5206 383.049 77.645 374.45 84.0241 370.408C90.4032 366.367 97.7918 366.238 117.982 356.843L122.922 368.43C122.922 368.43 90.9402 385.285 82.5206 383.049Z" fill="url(#paint65_linear_1267_1942)"/>
<path d="M301.108 379.48V344.46H281.068C280.403 342.525 279.629 340.633 278.727 338.785L292.882 324.618L268.138 299.852L253.984 314.019C252.158 313.138 250.268 312.364 248.314 311.676V291.618H213.325V311.676C211.392 312.342 209.502 313.116 207.655 314.019L193.5 299.852L168.757 324.618L182.911 338.785C182.031 340.612 181.258 342.504 180.57 344.46H160.531V379.48H180.57C181.236 381.415 182.031 383.307 182.911 385.156L168.757 399.323L193.5 424.088L207.655 409.921C209.48 410.802 211.371 411.576 213.325 412.264V432.322H248.314V412.264C250.247 411.598 252.137 410.824 253.984 409.921L268.138 424.088L292.882 399.323L278.727 385.156C279.608 383.328 280.381 381.436 281.068 379.48H301.108ZM230.83 384.382C218.458 384.382 208.428 374.342 208.428 361.959C208.428 349.577 218.458 339.537 230.83 339.537C243.202 339.537 253.232 349.577 253.232 361.959C253.232 374.342 243.202 384.382 230.83 384.382Z" fill="url(#paint66_linear_1267_1942)"/>
<path d="M301.108 379.48V344.46H281.068C280.403 342.525 279.629 340.633 278.727 338.785L292.882 324.618L268.138 299.852L253.984 314.019C252.158 313.138 250.268 312.364 248.314 311.676V291.618H213.325V311.676C211.392 312.342 209.502 313.116 207.655 314.019L193.5 299.852L168.757 324.618L182.911 338.785C182.031 340.612 181.258 342.504 180.57 344.46H160.531V379.48H180.57C181.236 381.415 182.031 383.307 182.911 385.156L168.757 399.323L193.5 424.088L207.655 409.921C209.48 410.802 211.371 411.576 213.325 412.264V432.322H248.314V412.264C250.247 411.598 252.137 410.824 253.984 409.921L268.138 424.088L292.882 399.323L278.727 385.156C279.608 383.328 280.381 381.436 281.068 379.48H301.108ZM230.83 384.382C218.458 384.382 208.428 374.342 208.428 361.959C208.428 349.577 218.458 339.537 230.83 339.537C243.202 339.537 253.232 349.577 253.232 361.959C253.232 374.342 243.202 384.382 230.83 384.382Z" fill="#FE7146"/>
<path d="M230.83 404.246C207.547 404.246 188.603 385.285 188.603 361.981C188.603 338.677 207.547 319.716 230.83 319.716C254.113 319.716 273.057 338.677 273.057 361.981C273.057 385.285 254.113 404.246 230.83 404.246ZM230.83 321.995C208.793 321.995 190.88 339.924 190.88 361.981C190.88 384.038 208.793 401.967 230.83 401.967C252.867 401.967 270.78 384.038 270.78 361.981C270.78 339.924 252.867 321.995 230.83 321.995Z" fill="white"/>
<path d="M230.83 394.808C212.745 394.808 198.032 380.082 198.032 361.981C198.032 343.88 212.745 329.154 230.83 329.154C248.915 329.154 263.628 343.88 263.628 361.981C263.628 380.082 248.915 394.808 230.83 394.808ZM230.83 331.433C214.012 331.433 200.309 345.127 200.309 361.981C200.309 378.835 213.991 392.529 230.83 392.529C247.669 392.529 261.351 378.835 261.351 361.981C261.351 345.127 247.669 331.433 230.83 331.433Z" fill="white"/>
<path d="M377.421 430.667V408.115H364.513C364.083 406.868 363.589 405.643 363.009 404.461L372.138 395.324L356.222 379.394L347.094 388.509C345.912 387.929 344.688 387.434 343.442 387.004V374.084H320.911V387.004C319.665 387.434 318.441 387.929 317.26 388.509L308.153 379.394L292.237 395.324L301.366 404.461C300.786 405.643 300.292 406.868 299.862 408.115H286.954V430.667H299.862C300.292 431.913 300.786 433.139 301.366 434.321L292.237 443.436L308.153 459.366L317.26 450.23C318.441 450.81 319.665 451.305 320.911 451.734V464.655H343.442V451.734C344.688 451.305 345.912 450.81 347.094 450.23L356.222 459.366L372.138 443.436L363.009 434.321C363.589 433.139 364.083 431.913 364.513 430.667H377.421ZM332.187 433.827C324.219 433.827 317.775 427.356 317.775 419.402C317.775 411.447 324.24 404.977 332.187 404.977C340.135 404.977 346.6 411.447 346.6 419.402C346.6 427.356 340.135 433.827 332.187 433.827Z" fill="url(#paint67_linear_1267_1942)"/>
<path d="M332.187 447.026C316.981 447.026 304.587 434.644 304.587 419.402C304.587 404.16 316.959 391.777 332.187 391.777C347.416 391.777 359.787 404.16 359.787 419.402C359.787 434.644 347.416 447.026 332.187 447.026ZM332.187 394.077C318.226 394.077 306.886 405.449 306.886 419.402C306.886 433.354 318.248 444.726 332.187 444.726C346.127 444.726 357.489 433.354 357.489 419.402C357.489 405.449 346.127 394.077 332.187 394.077Z" fill="white"/>
<path d="M332.187 440.943C320.309 440.943 310.666 431.268 310.666 419.402C310.666 407.535 320.331 397.861 332.187 397.861C344.043 397.861 353.709 407.535 353.709 419.402C353.709 431.268 344.043 440.943 332.187 440.943ZM332.187 400.14C321.577 400.14 312.942 408.782 312.942 419.402C312.942 430.022 321.577 438.664 332.187 438.664C342.797 438.664 351.432 430.022 351.432 419.402C351.432 408.782 342.797 400.14 332.187 400.14Z" fill="white"/>
<path d="M393.509 550.904C389.342 530.653 398.556 501.695 400.038 496.686C402.83 487.206 410.649 477.618 421.152 482.605C422.483 483.229 423.665 484.132 424.653 485.25C436.23 498.299 422.634 518.958 415.846 530.804C412.904 535.941 409.854 541.036 406.589 546.002C397.912 550.796 394.969 558.106 393.487 550.925L393.509 550.904Z" fill="url(#paint68_linear_1267_1942)"/>
<path d="M418.467 538.93C411.443 539.747 404.549 541.23 398.921 543.767C398.921 543.767 390.094 547.292 394.926 555.247C394.926 555.247 395.077 557.568 400.983 556.794C403.024 556.515 410.09 555.376 418.445 553.978V538.93H418.467Z" fill="url(#paint69_linear_1267_1942)"/>
<path d="M413.698 432.472C416.662 432.042 419.411 432.343 421.259 434.321C424.953 438.255 420.056 441.759 416.426 443.501C410.068 446.51 402.809 447.951 396.021 449.778C390.974 451.132 384.552 452.981 379.397 451.476C376.54 450.659 374.972 448.381 377.292 446.016C379.848 443.415 383.499 442.383 386.871 441.114C391.36 439.416 395.935 437.911 400.51 436.428C404.806 435.052 409.231 433.139 413.72 432.472H413.698Z" fill="url(#paint70_linear_1267_1942)"/>
<path d="M378.645 412.479L378.882 411.469C378.882 411.469 378.882 411.383 378.903 411.34L379.913 402.741C379.956 402.375 379.827 401.988 379.547 401.73L370.892 393.626C370.741 393.475 370.548 393.389 370.355 393.346C369.56 393.153 368.808 393.819 368.916 394.636L369.087 395.904C369.109 396.141 369.216 396.334 369.367 396.528L371.88 399.473C372.073 399.688 372.159 399.968 372.159 400.247C372.159 401.816 372.159 407.363 373.082 411.727C373.19 412.286 373.705 412.651 374.285 412.651L378.667 412.501L378.645 412.479Z" fill="url(#paint71_linear_1267_1942)"/>
<path d="M378.538 451.025C376.154 450.401 375.638 447.392 375.359 445.328C374.93 442.297 373.233 411.985 373.641 411.942L378.903 411.318C378.903 411.318 386.528 439.653 386.056 446.811C385.841 449.95 381.717 451.863 378.538 451.025Z" fill="url(#paint72_linear_1267_1942)"/>
<path d="M474.289 531.126C472.549 531.599 471.153 534.265 470.122 535.662C469.177 536.93 468.941 538.844 468.017 539.037C465.333 539.618 460.027 539.102 460.027 539.102L461.402 547.916C461.402 547.916 468.103 546.583 472.141 547.593C476.179 548.604 487.026 552.344 487.026 552.344C487.026 552.344 494.35 557.869 494.823 558.063C495.295 558.256 496.348 558.88 498.13 558.966C498.13 558.966 500.493 558.063 493.835 548.582C493.835 548.582 491.171 544.261 484.857 539.446C483.568 538.328 482.279 537.188 480.99 536.07C479.68 534.91 475.9 531.233 475.084 531.104C474.762 531.061 474.504 531.061 474.268 531.126H474.289Z" fill="url(#paint73_linear_1267_1942)"/>
<path d="M481.012 536.07C482.301 537.188 483.59 538.328 484.878 539.446C491.193 544.261 493.856 548.582 493.856 548.582C500.515 558.063 498.152 558.966 498.152 558.966C496.348 558.88 495.317 558.256 494.844 558.063C494.372 557.869 487.048 552.344 487.048 552.344H487.005C487.993 549.249 487.692 546.991 484.578 544.906C479.595 541.595 474.161 540.435 470.273 535.447C471.304 534.007 472.636 531.577 474.311 531.126C474.547 531.061 474.805 531.061 475.127 531.104C475.943 531.233 479.724 534.91 481.034 536.07H481.012Z" fill="url(#paint74_linear_1267_1942)"/>
<path d="M402.68 550.904C398.513 530.653 407.728 501.695 409.21 496.686C412.002 487.206 419.82 477.618 430.323 482.605C431.655 483.229 432.836 484.132 433.824 485.25C445.401 498.299 431.805 518.958 425.018 530.804C422.075 535.941 419.025 541.036 415.761 546.002C407.083 550.796 404.141 558.106 402.659 550.925L402.68 550.904Z" fill="url(#paint75_linear_1267_1942)"/>
<path d="M404.119 555.247C404.119 555.247 404.269 557.568 410.176 556.794C416.083 556.021 463.765 547.894 463.765 547.894L463.679 539.059C463.679 539.059 427.853 534.802 408.093 543.767C408.093 543.767 399.265 547.292 404.098 555.247H404.119Z" fill="url(#paint76_linear_1267_1942)"/>
<path d="M408.673 388.853C411.658 385.908 416.555 385.457 420.335 385.715C425.684 386.08 431.44 388.531 434.125 393.604C439 402.848 428.368 416.908 419.025 416.628C417.887 416.585 416.705 416.327 415.803 415.575C414.686 414.651 414.579 413.275 414.042 411.985C413.763 411.318 413.333 410.717 412.904 410.136C411.379 408.051 409.661 406.159 408.243 403.988C406.825 401.816 405.73 399.323 405.644 396.614C405.558 393.518 406.739 390.767 408.673 388.853Z" fill="url(#paint77_linear_1267_1942)"/>
<path d="M418.145 413.189C418.939 412.565 419.734 411.899 420.486 411.232C421.452 414.586 422.569 418.004 423.987 421.186C424.137 422.003 424.631 422.433 424.631 423.035C424.631 423.035 422.591 431.01 414.665 429.205C414.665 429.205 416.254 422.304 414.601 416.822C415.717 415.553 416.856 414.285 418.166 413.189H418.145Z" fill="url(#paint78_linear_1267_1942)"/>
<path d="M408.436 392.658C408.436 392.658 400.704 409.964 405.429 417.101C405.429 417.101 415.309 420.627 422.118 412.135C428.905 403.644 425.447 387.563 408.436 392.68V392.658Z" fill="url(#paint79_linear_1267_1942)"/>
<path d="M406.954 401L405.365 408.502L401.799 407.75L406.954 401Z" fill="#FFB5BE"/>
<path d="M407.233 465.407C407.298 463.644 407.62 460.957 406.975 459.302C405.472 455.411 403.474 450.982 403.474 446.424C403.474 436.17 423.9 421.122 423.986 421.186C424.588 421.616 425.125 422.089 425.597 422.605L425.64 422.648C425.812 422.82 425.962 423.013 426.113 423.207C426.177 423.293 426.22 423.336 426.285 423.422C426.499 423.701 426.693 423.981 426.886 424.282C426.907 424.325 426.929 424.346 426.95 424.368V424.411C427.187 424.755 427.38 425.099 427.552 425.464C428.475 427.227 429.012 429.226 429.249 431.183C429.313 431.72 429.356 432.279 429.378 432.816C429.506 434.73 429.463 436.664 429.313 438.449C429.27 439.051 429.206 439.631 429.141 440.19C428.518 445.457 428.604 450.66 428.991 455.927C429.356 459.839 430.022 463.709 430.967 467.535C431.16 468.18 431.332 468.825 431.525 469.449C432.084 471.276 432.707 473.103 433.287 474.952C433.501 475.64 433.673 476.134 433.716 476.564C434.833 479.897 435.907 483.229 436.272 486.69C436.337 487.378 437.496 488.668 436.895 489.033C436.594 489.227 435.005 488.775 434.64 488.775C430.065 488.689 425.49 488.625 420.893 488.539C418.767 488.496 407.04 489.635 402.508 490.022C400.253 490.216 403.711 487.485 404.355 485.314C405.3 482.025 406.438 478.155 406.438 478.005C406.438 473.791 407.104 469.621 407.255 465.407H407.233Z" fill="url(#paint80_linear_1267_1942)"/>
<path d="M422.462 406.159C422.462 406.159 422.462 487.141 438.334 480.757C438.334 480.757 438.249 406.331 434.919 395.518C431.59 384.704 409.467 392.078 409.467 392.078L422.462 406.159Z" fill="url(#paint81_linear_1267_1942)"/>
<path d="M421.903 405.708C421.903 405.708 425.855 402.633 427.036 405.579C428.024 408.094 425.662 412.909 420.894 413.167L421.903 405.686V405.708Z" fill="url(#paint82_linear_1267_1942)"/>
<path style="mix-blend-mode:multiply" d="M418.531 467.965C418.531 467.535 418.531 467.127 418.531 466.697C418.552 461.881 418.789 457.087 419.046 452.272C419.197 449.284 419.175 446.166 419.433 443.114H428.884C428.583 447.392 428.669 451.627 428.991 455.927C429.184 457.99 429.464 460.054 429.829 462.096C429.313 467.148 428.626 473.34 425.576 477.381C424.545 478.757 423.213 479.553 422.01 479.402C420.786 479.488 419.455 479.209 418.402 478.972C417.264 478.714 412.238 477.338 406.503 475.748C406.653 472.48 407.061 469.212 407.212 465.945C411.314 466.568 415.374 467.256 418.552 467.987L418.531 467.965Z" fill="url(#paint83_linear_1267_1942)"/>
<path d="M417.543 435.847C418.188 432.924 419.476 430.473 421.968 429.441C426.951 427.399 428.497 433.225 428.798 437.245C429.335 444.275 428.089 451.562 427.359 458.571C426.822 463.773 426.242 470.437 423.02 474.716C421.238 477.08 418.553 477.747 417.157 474.737C415.632 471.426 415.997 467.643 415.997 464.031C415.997 459.216 416.255 454.422 416.512 449.606C416.749 445.091 416.555 440.276 417.543 435.847Z" fill="url(#paint84_linear_1267_1942)"/>
<path d="M386.356 461.494L385.497 460.914C385.497 460.914 385.411 460.871 385.368 460.849L377.722 456.829C377.4 456.657 376.992 456.657 376.648 456.829L365.995 462.032C365.801 462.118 365.651 462.268 365.544 462.44C365.071 463.128 365.436 464.052 366.252 464.246L367.498 464.547C367.713 464.59 367.949 464.59 368.164 464.504L371.794 463.214C372.052 463.128 372.352 463.128 372.61 463.214C374.071 463.794 379.247 465.751 383.65 466.46C384.208 466.546 384.745 466.202 384.939 465.665L386.356 461.516V461.494Z" fill="url(#paint85_linear_1267_1942)"/>
<path d="M422.311 475.36C420.872 477.36 417.887 476.758 415.846 476.306C412.861 475.618 383.951 466.439 384.058 466.03L385.368 460.849C385.368 460.849 414.536 463.838 421.044 466.847C423.901 468.159 424.223 472.695 422.29 475.382L422.311 475.36Z" fill="url(#paint86_linear_1267_1942)"/>
<path d="M130.955 346.524C130.955 346.524 131.986 346.717 132.458 347.319C132.931 347.921 131.255 349.534 131.255 349.534L130.955 346.524Z" fill="url(#paint87_linear_1267_1942)"/>
<path d="M283.474 18.5742C283.474 18.5742 277.61 28.5277 273.014 29.6886C273.014 29.6886 283.774 28.7857 287.941 17.1339C292.087 5.48205 285.407 16.4675 285.149 16.7254C284.891 16.9834 283.495 18.5742 283.495 18.5742H283.474Z" fill="url(#paint88_linear_1267_1942)"/>
<path d="M286.889 14.2961C286.889 14.2961 285.02 25.7115 281.154 28.4417C281.154 28.4417 290.863 23.6907 290.519 11.3294C290.175 -1.03183 287.899 11.6304 287.77 11.9744C287.641 12.3183 286.889 14.2961 286.889 14.2961Z" fill="url(#paint89_linear_1267_1942)"/>
<path d="M497.55 440.663C500.729 440.577 503.886 440.319 507.044 439.739C508.891 415.575 512.607 365.958 512.306 359.208C511.898 350.222 503.392 328.853 503.392 328.853C503.392 328.853 492.717 347.061 492.18 350.695C491.643 354.328 491.643 367.441 491.643 367.441C490.999 389.627 491.815 422.003 492.395 439.846C494.092 440.212 495.81 440.47 497.572 440.663H497.55Z" fill="url(#paint90_linear_1267_1942)"/>
<path d="M501.395 437.116C501.416 438.234 501.459 439.373 501.481 440.491C501.867 440.469 502.254 440.384 502.619 440.341C502.49 436.428 502.34 432.494 502.211 428.581L501.846 415.188L501.782 408.502L501.867 401.795L502.576 348.136H502.276L501.073 401.795L500.922 408.502V415.231L501.159 428.667L501.395 437.094V437.116Z" fill="white"/>
<path d="M480.453 435.031C486.016 438.449 491.665 440.04 497.615 440.685C499.376 440.62 501.116 440.513 502.877 440.341L500.987 429.011C500.987 429.011 491.665 392.121 490.72 388.703C489.775 385.306 480.861 363.464 477.897 359.573C474.933 355.682 466.149 352.78 466.149 352.78C466.149 352.78 464.259 361.035 464.667 367.592C465.075 374.149 471.411 394.529 474.804 411.297C476.265 418.499 478.456 427.291 480.496 435.052L480.453 435.031Z" fill="url(#paint91_linear_1267_1942)"/>
<path d="M480.411 396.077L484.105 407.04C484.406 407.965 484.685 408.889 484.921 409.857L485.63 412.78L487.026 418.671L489.797 430.473L491.945 439.76C492.374 439.868 492.825 439.954 493.255 440.04C492.439 436.578 491.601 433.139 490.763 429.699L487.885 417.961L486.425 412.114L485.673 409.19C485.415 408.201 485.114 407.255 484.814 406.331L481.012 395.475L477.146 384.683L469.349 363.185L469.091 363.486L476.652 385.199L480.411 396.077Z" fill="white"/>
<path d="M511.017 438.836C513.659 438.083 516.151 436.729 518.642 435.31C521.886 425.894 528.157 384.468 528.157 384.468C530.434 369.118 527.9 353.188 527.9 353.188C527.9 353.188 528.329 351.748 523.991 357.466C519.652 363.206 514.626 370.258 511.383 382.21C508.139 394.185 503.758 423.185 502.533 430.323C502.061 433.096 502.125 436.836 502.362 440.362C505.261 440.083 508.161 439.61 511.017 438.814V438.836Z" fill="url(#paint92_linear_1267_1942)"/>
<path d="M510.609 438.922L517.955 401.602C518.191 400.312 518.471 399 518.75 397.732C518.836 397.323 518.922 396.893 519.007 396.485L524.463 370.924L523.733 370.473L517.976 395.862C517.891 396.27 517.783 396.679 517.697 397.087C517.418 398.355 517.117 399.667 516.838 400.978L508.784 439.352C509.407 439.223 510.008 439.115 510.631 438.943L510.609 438.922Z" fill="white"/>
<path d="M481.785 443.63C481.785 443.63 475.621 407.384 445.895 401.214C445.895 401.214 472.528 398.441 485.995 440.211L481.764 443.63H481.785Z" fill="white"/>
<path d="M518.857 440.685C518.857 440.685 523.046 404.504 542.033 398.463C542.033 398.463 525.086 395.582 516.194 437.266L518.857 440.706V440.685Z" fill="white"/>
<path d="M520.661 441.544C520.661 441.544 530.584 411.146 547.96 409.276C547.96 409.276 533.892 403.837 518.964 438.126L520.661 441.544Z" fill="white"/>
<path d="M479.079 438.062C479.079 438.062 476.738 428.194 448.322 410.136C448.322 410.136 474.633 424.862 483.547 439.868L479.079 438.062Z" fill="white"/>
<path d="M486.295 437.245C486.295 437.245 489.302 427.549 473.967 397.56C473.967 397.56 489.174 423.615 489.238 441.093L486.295 437.266V437.245Z" fill="white"/>
<path d="M516.988 493.763L525.129 439.395C525.365 437.847 524.162 436.449 522.594 436.449H476.974C475.406 436.449 474.203 437.847 474.439 439.395L482.58 493.763C482.773 495.031 483.847 495.956 485.114 495.956H514.454C515.721 495.956 516.817 495.031 516.988 493.763Z" fill="url(#paint93_linear_1267_1942)"/>
</g>
<defs>
<linearGradient id="paint0_linear_1267_1942" x1="315.885" y1="72.8563" x2="279.242" y2="652.026" gradientUnits="userSpaceOnUse">
<stop offset="0.21" stop-color="#493BF1"/>
<stop offset="0.3" stop-color="#584BF2"/>
<stop offset="0.5" stop-color="#8076F5"/>
<stop offset="0.76" stop-color="#BFBAFA"/>
<stop offset="1" stop-color="white"/>
</linearGradient>
<linearGradient id="paint1_linear_1267_1942" x1="282.98" y1="587.902" x2="282.98" y2="42.9099" gradientUnits="userSpaceOnUse">
<stop stop-color="#39B8FA"/>
<stop offset="1" stop-color="#AACAFF"/>
</linearGradient>
<linearGradient id="paint2_linear_1267_1942" x1="285.171" y1="360.089" x2="285.171" y2="585.301" gradientUnits="userSpaceOnUse">
<stop stop-color="#39B8FA"/>
<stop offset="1" stop-color="#AACAFF"/>
</linearGradient>
<linearGradient id="paint3_linear_1267_1942" x1="290.412" y1="574.702" x2="290.412" y2="542.111" gradientUnits="userSpaceOnUse">
<stop stop-color="#39B8FA"/>
<stop offset="1" stop-color="#AACAFF"/>
</linearGradient>
<linearGradient id="paint4_linear_1267_1942" x1="257.787" y1="242.316" x2="291.083" y2="267.019" gradientUnits="userSpaceOnUse">
<stop stop-color="#F4F3F1"/>
<stop offset="1" stop-color="#FFB2BC"/>
</linearGradient>
<linearGradient id="paint5_linear_1267_1942" x1="280.335" y1="276.433" x2="258.836" y2="249.341" gradientUnits="userSpaceOnUse">
<stop stop-color="#071786"/>
<stop offset="0.15" stop-color="#05136B"/>
<stop offset="0.32" stop-color="#031054"/>
<stop offset="0.51" stop-color="#020D44"/>
<stop offset="0.72" stop-color="#020C3B"/>
<stop offset="1" stop-color="#020C38"/>
</linearGradient>
<linearGradient id="paint6_linear_1267_1942" x1="289.798" y1="176.732" x2="288.887" y2="254.295" gradientUnits="userSpaceOnUse">
<stop stop-color="#071786"/>
<stop offset="0.15" stop-color="#05136B"/>
<stop offset="0.32" stop-color="#031054"/>
<stop offset="0.51" stop-color="#020D44"/>
<stop offset="0.72" stop-color="#020C3B"/>
<stop offset="1" stop-color="#020C38"/>
</linearGradient>
<linearGradient id="paint7_linear_1267_1942" x1="267.524" y1="161.172" x2="319.426" y2="141.703" gradientUnits="userSpaceOnUse">
<stop stop-color="#071786"/>
<stop offset="0.11" stop-color="#06157E"/>
<stop offset="0.26" stop-color="#05136A"/>
<stop offset="0.45" stop-color="#030E4A"/>
<stop offset="0.54" stop-color="#020C38"/>
</linearGradient>
<linearGradient id="paint8_linear_1267_1942" x1="306.567" y1="83.6353" x2="277.411" y2="56.7798" gradientUnits="userSpaceOnUse">
<stop stop-color="#0038DC"/>
<stop offset="1" stop-color="#00DCFE"/>
</linearGradient>
<linearGradient id="paint9_linear_1267_1942" x1="276.054" y1="106.245" x2="239.372" y2="124.972" gradientUnits="userSpaceOnUse">
<stop stop-color="#F4F3F1"/>
<stop offset="1" stop-color="#FFB2BC"/>
</linearGradient>
<linearGradient id="paint10_linear_1267_1942" x1="285.543" y1="86.9407" x2="275.661" y2="109.317" gradientUnits="userSpaceOnUse">
<stop stop-color="#0038DC"/>
<stop offset="1" stop-color="#00DCFE"/>
</linearGradient>
<linearGradient id="paint11_linear_1267_1942" x1="350.039" y1="229.855" x2="388.307" y2="237.183" gradientUnits="userSpaceOnUse">
<stop stop-color="#F4F3F1"/>
<stop offset="1" stop-color="#FFB2BC"/>
</linearGradient>
<linearGradient id="paint12_linear_1267_1942" x1="382.351" y1="249.392" x2="354.294" y2="235.811" gradientUnits="userSpaceOnUse">
<stop stop-color="#071786"/>
<stop offset="0.15" stop-color="#05136B"/>
<stop offset="0.32" stop-color="#031054"/>
<stop offset="0.51" stop-color="#020D44"/>
<stop offset="0.72" stop-color="#020C3B"/>
<stop offset="1" stop-color="#020C38"/>
</linearGradient>
<linearGradient id="paint13_linear_1267_1942" x1="349.934" y1="171.316" x2="374.079" y2="220.54" gradientUnits="userSpaceOnUse">
<stop stop-color="#071786"/>
<stop offset="0.15" stop-color="#05136B"/>
<stop offset="0.32" stop-color="#031054"/>
<stop offset="0.51" stop-color="#020D44"/>
<stop offset="0.72" stop-color="#020C3B"/>
<stop offset="1" stop-color="#020C38"/>
</linearGradient>
<linearGradient id="paint14_linear_1267_1942" x1="344.624" y1="188.386" x2="307.294" y2="-1.12657" gradientUnits="userSpaceOnUse">
<stop stop-color="#071786"/>
<stop offset="0.15" stop-color="#05136B"/>
<stop offset="0.32" stop-color="#031054"/>
<stop offset="0.51" stop-color="#020D44"/>
<stop offset="0.72" stop-color="#020C3B"/>
<stop offset="1" stop-color="#020C38"/>
</linearGradient>
<linearGradient id="paint15_linear_1267_1942" x1="338.083" y1="97.6916" x2="261.824" y2="79.7611" gradientUnits="userSpaceOnUse">
<stop stop-color="#0038DC"/>
<stop offset="1" stop-color="#00DCFE"/>
</linearGradient>
<linearGradient id="paint16_linear_1267_1942" x1="306.349" y1="47.1878" x2="293.646" y2="37.1594" gradientUnits="userSpaceOnUse">
<stop stop-color="#F4F3F1"/>
<stop offset="1" stop-color="#FFB2BC"/>
</linearGradient>
<linearGradient id="paint17_linear_1267_1942" x1="312.556" y1="39.3197" x2="299.853" y2="29.3128" gradientUnits="userSpaceOnUse">
<stop stop-color="#F4F3F1"/>
<stop offset="1" stop-color="#FFB2BC"/>
</linearGradient>
<linearGradient id="paint18_linear_1267_1942" x1="298.396" y1="50.2473" x2="295.517" y2="39.513" gradientUnits="userSpaceOnUse">
<stop stop-color="#E7E6FF"/>
<stop offset="0.34" stop-color="#C9D2F8"/>
<stop offset="0.76" stop-color="#A9BCF0"/>
<stop offset="1" stop-color="#9EB5EE"/>
</linearGradient>
<linearGradient id="paint19_linear_1267_1942" x1="294.696" y1="48.9694" x2="292.202" y2="39.6676" gradientUnits="userSpaceOnUse">
<stop stop-color="#F9FBFC"/>
<stop offset="1" stop-color="#CDDBFF"/>
</linearGradient>
<linearGradient id="paint20_linear_1267_1942" x1="279.993" y1="31.2073" x2="304.866" y2="22.108" gradientUnits="userSpaceOnUse">
<stop stop-color="#F4F3F1"/>
<stop offset="1" stop-color="#FFB2BC"/>
</linearGradient>
<linearGradient id="paint21_linear_1267_1942" x1="289.316" y1="24.8946" x2="289.036" y2="-2.90211" gradientUnits="userSpaceOnUse">
<stop offset="0.3" stop-color="#4E1910"/>
<stop offset="0.63" stop-color="#783918"/>
<stop offset="0.79" stop-color="#8A471C"/>
</linearGradient>
<linearGradient id="paint22_linear_1267_1942" x1="301.178" y1="20.4672" x2="305.98" y2="18.7108" gradientUnits="userSpaceOnUse">
<stop stop-color="#F4F3F1"/>
<stop offset="1" stop-color="#FFB2BC"/>
</linearGradient>
<linearGradient id="paint23_linear_1267_1942" x1="309.955" y1="48.2379" x2="305.389" y2="31.2124" gradientUnits="userSpaceOnUse">
<stop stop-color="#F9FBFC"/>
<stop offset="0.31" stop-color="#F0F4FC"/>
<stop offset="0.8" stop-color="#D8E3FE"/>
<stop offset="1" stop-color="#CDDBFF"/>
</linearGradient>
<linearGradient id="paint24_linear_1267_1942" x1="355.608" y1="249.587" x2="300.794" y2="45.1975" gradientUnits="userSpaceOnUse">
<stop stop-color="#E7E6FF"/>
<stop offset="0.34" stop-color="#C9D2F8"/>
<stop offset="0.76" stop-color="#A9BCF0"/>
<stop offset="1" stop-color="#9EB5EE"/>
</linearGradient>
<linearGradient id="paint25_linear_1267_1942" x1="273.511" y1="122.211" x2="263.199" y2="111.239" gradientUnits="userSpaceOnUse">
<stop stop-color="#F9FBFC"/>
<stop offset="0.31" stop-color="#F0F4FC"/>
<stop offset="0.8" stop-color="#D8E3FE"/>
<stop offset="1" stop-color="#CDDBFF"/>
</linearGradient>
<linearGradient id="paint26_linear_1267_1942" x1="265.797" y1="205.541" x2="265.797" y2="54.7767" gradientUnits="userSpaceOnUse">
<stop stop-color="#E49E1C"/>
<stop offset="0.41" stop-color="#FFE900"/>
</linearGradient>
<linearGradient id="paint27_linear_1267_1942" x1="265.797" y1="255.481" x2="265.797" y2="188.042" gradientUnits="userSpaceOnUse">
<stop offset="0.21" stop-color="#493BF1"/>
<stop offset="0.4" stop-color="#514BF3"/>
<stop offset="0.77" stop-color="#6776F9"/>
<stop offset="1" stop-color="#7793FE"/>
</linearGradient>
<linearGradient id="paint28_linear_1267_1942" x1="265.797" y1="192.771" x2="265.797" y2="266.359" gradientUnits="userSpaceOnUse">
<stop stop-color="#071786"/>
<stop offset="0.11" stop-color="#06157E"/>
<stop offset="0.26" stop-color="#05136A"/>
<stop offset="0.45" stop-color="#030E4A"/>
<stop offset="0.54" stop-color="#020C38"/>
</linearGradient>
<linearGradient id="paint29_linear_1267_1942" x1="265.797" y1="192.771" x2="265.797" y2="266.359" gradientUnits="userSpaceOnUse">
<stop stop-color="#071786"/>
<stop offset="0.11" stop-color="#06157E"/>
<stop offset="0.26" stop-color="#05136A"/>
<stop offset="0.45" stop-color="#030E4A"/>
<stop offset="0.54" stop-color="#020C38"/>
</linearGradient>
<linearGradient id="paint30_linear_1267_1942" x1="265.797" y1="192.772" x2="265.797" y2="266.359" gradientUnits="userSpaceOnUse">
<stop stop-color="#071786"/>
<stop offset="0.11" stop-color="#06157E"/>
<stop offset="0.26" stop-color="#05136A"/>
<stop offset="0.45" stop-color="#030E4A"/>
<stop offset="0.54" stop-color="#020C38"/>
</linearGradient>
<linearGradient id="paint31_linear_1267_1942" x1="265.797" y1="192.771" x2="265.797" y2="266.359" gradientUnits="userSpaceOnUse">
<stop stop-color="#071786"/>
<stop offset="0.11" stop-color="#06157E"/>
<stop offset="0.26" stop-color="#05136A"/>
<stop offset="0.45" stop-color="#030E4A"/>
<stop offset="0.54" stop-color="#020C38"/>
</linearGradient>
<linearGradient id="paint32_linear_1267_1942" x1="349.391" y1="67.9673" x2="316.777" y2="64.0628" gradientUnits="userSpaceOnUse">
<stop stop-color="#0038DC"/>
<stop offset="1" stop-color="#00DCFE"/>
</linearGradient>
<linearGradient id="paint33_linear_1267_1942" x1="275.441" y1="90.0118" x2="299.748" y2="107.619" gradientUnits="userSpaceOnUse">
<stop stop-color="#F4F3F1"/>
<stop offset="1" stop-color="#FFB2BC"/>
</linearGradient>
<linearGradient id="paint34_linear_1267_1942" x1="338.626" y1="104.151" x2="307.1" y2="100.801" gradientUnits="userSpaceOnUse">
<stop stop-color="#0038DC"/>
<stop offset="1" stop-color="#00DCFE"/>
</linearGradient>
<linearGradient id="paint35_linear_1267_1942" x1="316.724" y1="121.856" x2="303.552" y2="114.533" gradientUnits="userSpaceOnUse">
<stop stop-color="#F9FBFC"/>
<stop offset="0.31" stop-color="#F0F4FC"/>
<stop offset="0.8" stop-color="#D8E3FE"/>
<stop offset="1" stop-color="#CDDBFF"/>
</linearGradient>
<linearGradient id="paint36_linear_1267_1942" x1="265.797" y1="295.058" x2="265.797" y2="213.173" gradientUnits="userSpaceOnUse">
<stop stop-color="#F9FBFC"/>
<stop offset="0.38" stop-color="#EBF1FC"/>
<stop offset="1" stop-color="#CDDBFF"/>
</linearGradient>
<linearGradient id="paint37_linear_1267_1942" x1="265.818" y1="147.411" x2="265.818" y2="563.91" gradientUnits="userSpaceOnUse">
<stop stop-color="#F9FBFC"/>
<stop offset="0.38" stop-color="#EBF1FC"/>
<stop offset="1" stop-color="#CDDBFF"/>
</linearGradient>
<linearGradient id="paint38_linear_1267_1942" x1="265.797" y1="570.037" x2="265.797" y2="253.567" gradientUnits="userSpaceOnUse">
<stop stop-color="#F9FBFC"/>
<stop offset="0.38" stop-color="#EBF1FC"/>
<stop offset="1" stop-color="#CDDBFF"/>
</linearGradient>
<linearGradient id="paint39_linear_1267_1942" x1="265.797" y1="252.621" x2="265.797" y2="282.009" gradientUnits="userSpaceOnUse">
<stop stop-color="#F9FBFC"/>
<stop offset="0.09" stop-color="#F1F5FC"/>
<stop offset="0.39" stop-color="#DDE6FD"/>
<stop offset="0.7" stop-color="#D1DDFE"/>
<stop offset="1" stop-color="#CDDBFF"/>
</linearGradient>
<linearGradient id="paint40_linear_1267_1942" x1="194.703" y1="378.04" x2="120.709" y2="378.04" gradientUnits="userSpaceOnUse">
<stop stop-color="#F9FBFC"/>
<stop offset="0.38" stop-color="#EBF1FC"/>
<stop offset="1" stop-color="#CDDBFF"/>
</linearGradient>
<linearGradient id="paint41_linear_1267_1942" x1="336.891" y1="378.04" x2="410.885" y2="378.04" gradientUnits="userSpaceOnUse">
<stop stop-color="#F9FBFC"/>
<stop offset="0.38" stop-color="#EBF1FC"/>
<stop offset="1" stop-color="#CDDBFF"/>
</linearGradient>
<linearGradient id="paint42_linear_1267_1942" x1="330.448" y1="235.402" x2="332.75" y2="488.259" gradientUnits="userSpaceOnUse">
<stop stop-color="#F9FBFC"/>
<stop offset="0.14" stop-color="#EBF1FC"/>
<stop offset="0.39" stop-color="#DAE4FE"/>
<stop offset="0.66" stop-color="#D0DDFE"/>
<stop offset="1" stop-color="#CDDBFF"/>
</linearGradient>
<linearGradient id="paint43_linear_1267_1942" x1="210.597" y1="628.877" x2="210.597" y2="521.946" gradientUnits="userSpaceOnUse">
<stop offset="0.26" stop-color="#F9FBFC"/>
<stop offset="0.54" stop-color="#EBF1FC"/>
<stop offset="1" stop-color="#CDDBFF"/>
</linearGradient>
<linearGradient id="paint44_linear_1267_1942" x1="330.984" y1="0.000435158" x2="330.984" y2="0.000435158" gradientUnits="userSpaceOnUse">
<stop offset="0.26" stop-color="#F9FBFC"/>
<stop offset="0.54" stop-color="#EBF1FC"/>
<stop offset="1" stop-color="#CDDBFF"/>
</linearGradient>
<linearGradient id="paint45_linear_1267_1942" x1="151.898" y1="348.113" x2="173.062" y2="322.281" gradientUnits="userSpaceOnUse">
<stop stop-color="#F4F3F1"/>
<stop offset="1" stop-color="#FFB2BC"/>
</linearGradient>
<linearGradient id="paint46_linear_1267_1942" x1="155.87" y1="529.557" x2="119.727" y2="550.403" gradientUnits="userSpaceOnUse">
<stop stop-color="#F4F3F1"/>
<stop offset="1" stop-color="#FFB2BC"/>
</linearGradient>
<linearGradient id="paint47_linear_1267_1942" x1="134.241" y1="562.384" x2="149.553" y2="538.448" gradientUnits="userSpaceOnUse">
<stop offset="0.21" stop-color="#493BF1"/>
<stop offset="0.4" stop-color="#514BF3"/>
<stop offset="0.77" stop-color="#6776F9"/>
<stop offset="1" stop-color="#7793FE"/>
</linearGradient>
<linearGradient id="paint48_linear_1267_1942" x1="133.017" y1="461.237" x2="124.883" y2="539.509" gradientUnits="userSpaceOnUse">
<stop stop-color="#071786"/>
<stop offset="0.15" stop-color="#05136B"/>
<stop offset="0.32" stop-color="#031054"/>
<stop offset="0.51" stop-color="#020D44"/>
<stop offset="0.72" stop-color="#020C3B"/>
<stop offset="1" stop-color="#020C38"/>
</linearGradient>
<linearGradient id="paint49_linear_1267_1942" x1="155.419" y1="457.131" x2="113.331" y2="420.471" gradientUnits="userSpaceOnUse">
<stop stop-color="#071786"/>
<stop offset="0.11" stop-color="#06157E"/>
<stop offset="0.26" stop-color="#05136A"/>
<stop offset="0.45" stop-color="#030E4A"/>
<stop offset="0.54" stop-color="#020C38"/>
</linearGradient>
<linearGradient id="paint50_linear_1267_1942" x1="125.542" y1="533.362" x2="91.5477" y2="552.963" gradientUnits="userSpaceOnUse">
<stop stop-color="#F4F3F1"/>
<stop offset="1" stop-color="#FFB2BC"/>
</linearGradient>
<linearGradient id="paint51_linear_1267_1942" x1="109.433" y1="575.068" x2="116.383" y2="544.307" gradientUnits="userSpaceOnUse">
<stop offset="0.21" stop-color="#493BF1"/>
<stop offset="0.4" stop-color="#514BF3"/>
<stop offset="0.77" stop-color="#6776F9"/>
<stop offset="1" stop-color="#7793FE"/>
</linearGradient>
<linearGradient id="paint52_linear_1267_1942" x1="107.607" y1="470.803" x2="99.7323" y2="535.273" gradientUnits="userSpaceOnUse">
<stop stop-color="#071786"/>
<stop offset="0.15" stop-color="#05136B"/>
<stop offset="0.32" stop-color="#031054"/>
<stop offset="0.51" stop-color="#020D44"/>
<stop offset="0.72" stop-color="#020C3B"/>
<stop offset="1" stop-color="#020C38"/>
</linearGradient>
<linearGradient id="paint53_linear_1267_1942" x1="108.617" y1="470.889" x2="108.617" y2="393.712" gradientUnits="userSpaceOnUse">
<stop stop-color="#071786"/>
<stop offset="0.15" stop-color="#05136B"/>
<stop offset="0.32" stop-color="#031054"/>
<stop offset="0.51" stop-color="#020D44"/>
<stop offset="0.72" stop-color="#020C3B"/>
<stop offset="1" stop-color="#020C38"/>
</linearGradient>
<linearGradient id="paint54_linear_1267_1942" x1="123.886" y1="378.645" x2="154.744" y2="345.492" gradientUnits="userSpaceOnUse">
<stop offset="0.32" stop-color="#493BF1"/>
<stop offset="0.48" stop-color="#514BF3"/>
<stop offset="0.8" stop-color="#6776F9"/>
<stop offset="1" stop-color="#7793FE"/>
</linearGradient>
<linearGradient id="paint55_linear_1267_1942" x1="80.528" y1="397.085" x2="149.642" y2="353.285" gradientUnits="userSpaceOnUse">
<stop offset="0.21" stop-color="#493BF1"/>
<stop offset="0.4" stop-color="#514BF3"/>
<stop offset="0.77" stop-color="#6776F9"/>
<stop offset="1" stop-color="#7793FE"/>
</linearGradient>
<linearGradient id="paint56_linear_1267_1942" x1="116.205" y1="361.879" x2="121.39" y2="375.506" gradientUnits="userSpaceOnUse">
<stop offset="0.21" stop-color="#493BF1"/>
<stop offset="0.4" stop-color="#514BF3"/>
<stop offset="0.77" stop-color="#6776F9"/>
<stop offset="1" stop-color="#7793FE"/>
</linearGradient>
<linearGradient id="paint57_linear_1267_1942" x1="108.725" y1="388.144" x2="120.793" y2="354.636" gradientUnits="userSpaceOnUse">
<stop stop-color="#F9FBFC"/>
<stop offset="0.09" stop-color="#F0F4FC"/>
<stop offset="0.37" stop-color="#DCE6FD"/>
<stop offset="0.65" stop-color="#D0DDFE"/>
<stop offset="0.94" stop-color="#CDDBFF"/>
</linearGradient>
<linearGradient id="paint58_linear_1267_1942" x1="117.649" y1="359.433" x2="122.834" y2="373.06" gradientUnits="userSpaceOnUse">
<stop stop-color="#F9FBFC"/>
<stop offset="0.09" stop-color="#F0F4FC"/>
<stop offset="0.37" stop-color="#DCE6FD"/>
<stop offset="0.65" stop-color="#D0DDFE"/>
<stop offset="0.94" stop-color="#CDDBFF"/>
</linearGradient>
<linearGradient id="paint59_linear_1267_1942" x1="110.829" y1="317.609" x2="104.938" y2="324.548" gradientUnits="userSpaceOnUse">
<stop stop-color="#F4F3F1"/>
<stop offset="1" stop-color="#FFB2BC"/>
</linearGradient>
<linearGradient id="paint60_linear_1267_1942" x1="123.093" y1="298.321" x2="101.703" y2="314.239" gradientUnits="userSpaceOnUse">
<stop stop-color="#F4F3F1"/>
<stop offset="1" stop-color="#FFB2BC"/>
</linearGradient>
<linearGradient id="paint61_linear_1267_1942" x1="114.458" y1="311.874" x2="90.8836" y2="284.573" gradientUnits="userSpaceOnUse">
<stop offset="0.3" stop-color="#4E1910"/>
<stop offset="0.63" stop-color="#783918"/>
<stop offset="0.79" stop-color="#8A471C"/>
</linearGradient>
<linearGradient id="paint62_linear_1267_1942" x1="102.378" y1="310.252" x2="98.2413" y2="313.331" gradientUnits="userSpaceOnUse">
<stop stop-color="#F4F3F1"/>
<stop offset="1" stop-color="#FFB2BC"/>
</linearGradient>
<linearGradient id="paint63_linear_1267_1942" x1="77.6235" y1="357.724" x2="99.532" y2="355.621" gradientUnits="userSpaceOnUse">
<stop offset="0.21" stop-color="#493BF1"/>
<stop offset="0.4" stop-color="#514BF3"/>
<stop offset="0.77" stop-color="#6776F9"/>
<stop offset="1" stop-color="#7793FE"/>
</linearGradient>
<linearGradient id="paint64_linear_1267_1942" x1="110.378" y1="360.39" x2="132.694" y2="359.596" gradientUnits="userSpaceOnUse">
<stop stop-color="#F4F3F1"/>
<stop offset="1" stop-color="#FFB2BC"/>
</linearGradient>
<linearGradient id="paint65_linear_1267_1942" x1="104.278" y1="383.479" x2="98.792" y2="360.328" gradientUnits="userSpaceOnUse">
<stop offset="0.21" stop-color="#493BF1"/>
<stop offset="0.4" stop-color="#514BF3"/>
<stop offset="0.77" stop-color="#6776F9"/>
<stop offset="1" stop-color="#7793FE"/>
</linearGradient>
<linearGradient id="paint66_linear_1267_1942" x1="230.83" y1="474.995" x2="230.83" y2="271.754" gradientUnits="userSpaceOnUse">
<stop offset="0.21" stop-color="#493BF1"/>
<stop offset="0.4" stop-color="#514BF3"/>
<stop offset="0.77" stop-color="#6776F9"/>
<stop offset="1" stop-color="#7793FE"/>
</linearGradient>
<linearGradient id="paint67_linear_1267_1942" x1="332.187" y1="472.953" x2="332.187" y2="375.396" gradientUnits="userSpaceOnUse">
<stop offset="0.21" stop-color="#493BF1"/>
<stop offset="0.4" stop-color="#514BF3"/>
<stop offset="0.77" stop-color="#6776F9"/>
<stop offset="1" stop-color="#7793FE"/>
</linearGradient>
<linearGradient id="paint68_linear_1267_1942" x1="408.05" y1="517.969" x2="385.088" y2="513.956" gradientUnits="userSpaceOnUse">
<stop stop-color="#4E1910"/>
<stop offset="1" stop-color="#8A471C"/>
</linearGradient>
<linearGradient id="paint69_linear_1267_1942" x1="402.981" y1="547.034" x2="379.997" y2="543.021" gradientUnits="userSpaceOnUse">
<stop stop-color="#4E1910"/>
<stop offset="1" stop-color="#8A471C"/>
</linearGradient>
<linearGradient id="paint70_linear_1267_1942" x1="378.94" y1="469.637" x2="425.056" y2="456.416" gradientUnits="userSpaceOnUse">
<stop stop-color="#F4F3F1"/>
<stop offset="1" stop-color="#FFB2BC"/>
</linearGradient>
<linearGradient id="paint71_linear_1267_1942" x1="368.502" y1="395.168" x2="381.724" y2="410.743" gradientUnits="userSpaceOnUse">
<stop stop-color="#F4F3F1"/>
<stop offset="1" stop-color="#FFB2BC"/>
</linearGradient>
<linearGradient id="paint72_linear_1267_1942" x1="392.881" y1="441.021" x2="367.786" y2="420.659" gradientUnits="userSpaceOnUse">
<stop stop-color="#F4F3F1"/>
<stop offset="1" stop-color="#FFB2BC"/>
</linearGradient>
<linearGradient id="paint73_linear_1267_1942" x1="477.653" y1="531.278" x2="482.579" y2="562.145" gradientUnits="userSpaceOnUse">
<stop stop-color="#F4F3F1"/>
<stop offset="1" stop-color="#FFB2BC"/>
</linearGradient>
<linearGradient id="paint74_linear_1267_1942" x1="482.914" y1="530.41" x2="487.841" y2="561.276" gradientUnits="userSpaceOnUse">
<stop stop-color="#96433A"/>
<stop offset="1" stop-color="#ED9540"/>
</linearGradient>
<linearGradient id="paint75_linear_1267_1942" x1="431.719" y1="531.814" x2="403.365" y2="504.645" gradientUnits="userSpaceOnUse">
<stop stop-color="#4E1910"/>
<stop offset="1" stop-color="#8A471C"/>
</linearGradient>
<linearGradient id="paint76_linear_1267_1942" x1="433.974" y1="558.364" x2="430.51" y2="499.159" gradientUnits="userSpaceOnUse">
<stop stop-color="#4E1910"/>
<stop offset="1" stop-color="#8A471C"/>
</linearGradient>
<linearGradient id="paint77_linear_1267_1942" x1="427.166" y1="417.832" x2="416.968" y2="386.73" gradientUnits="userSpaceOnUse">
<stop stop-color="#4E1910"/>
<stop offset="1" stop-color="#8A471C"/>
</linearGradient>
<linearGradient id="paint78_linear_1267_1942" x1="418.424" y1="422.476" x2="415.433" y2="413.771" gradientUnits="userSpaceOnUse">
<stop stop-color="#F4F3F1"/>
<stop offset="0.22" stop-color="#F7DBDD"/>
<stop offset="0.5" stop-color="#FBC4CB"/>
<stop offset="0.77" stop-color="#FEB6BF"/>
<stop offset="1" stop-color="#FFB2BC"/>
</linearGradient>
<linearGradient id="paint79_linear_1267_1942" x1="423.138" y1="396.492" x2="402.77" y2="415.218" gradientUnits="userSpaceOnUse">
<stop stop-color="#F4F3F1"/>
<stop offset="1" stop-color="#FFB2BC"/>
</linearGradient>
<linearGradient id="paint80_linear_1267_1942" x1="420.636" y1="463.429" x2="425.778" y2="410.631" gradientUnits="userSpaceOnUse">
<stop stop-color="#FF5B50"/>
<stop offset="0.27" stop-color="#FE7264"/>
<stop offset="0.75" stop-color="#FE9783"/>
<stop offset="1" stop-color="#FEA590"/>
</linearGradient>
<linearGradient id="paint81_linear_1267_1942" x1="437.712" y1="451.003" x2="415.66" y2="383.834" gradientUnits="userSpaceOnUse">
<stop stop-color="#4E1910"/>
<stop offset="1" stop-color="#8A471C"/>
</linearGradient>
<linearGradient id="paint82_linear_1267_1942" x1="421.254" y1="409.215" x2="426.667" y2="410.906" gradientUnits="userSpaceOnUse">
<stop stop-color="#F4F3F1"/>
<stop offset="1" stop-color="#FFB2BC"/>
</linearGradient>
<linearGradient id="paint83_linear_1267_1942" x1="414.3" y1="427.162" x2="419.937" y2="480.712" gradientUnits="userSpaceOnUse">
<stop stop-color="#96433A"/>
<stop offset="1" stop-color="#ED9540"/>
</linearGradient>
<linearGradient id="paint84_linear_1267_1942" x1="428.779" y1="480.102" x2="432.892" y2="432.265" gradientUnits="userSpaceOnUse">
<stop stop-color="#F4F3F1"/>
<stop offset="1" stop-color="#FFB2BC"/>
</linearGradient>
<linearGradient id="paint85_linear_1267_1942" x1="365.62" y1="467.025" x2="384.887" y2="460.252" gradientUnits="userSpaceOnUse">
<stop stop-color="#F4F3F1"/>
<stop offset="1" stop-color="#FFB2BC"/>
</linearGradient>
<linearGradient id="paint86_linear_1267_1942" x1="417.117" y1="460.605" x2="389.102" y2="476.767" gradientUnits="userSpaceOnUse">
<stop stop-color="#F4F3F1"/>
<stop offset="1" stop-color="#FFB2BC"/>
</linearGradient>
<linearGradient id="paint87_linear_1267_1942" x1="136.26" y1="347.126" x2="132.2" y2="347.834" gradientUnits="userSpaceOnUse">
<stop stop-color="#F4F3F1"/>
<stop offset="1" stop-color="#FFB2BC"/>
</linearGradient>
<linearGradient id="paint88_linear_1267_1942" x1="281.197" y1="24.9591" x2="280.917" y2="-2.81611" gradientUnits="userSpaceOnUse">
<stop offset="0.3" stop-color="#4E1910"/>
<stop offset="0.63" stop-color="#783918"/>
<stop offset="0.79" stop-color="#8A471C"/>
</linearGradient>
<linearGradient id="paint89_linear_1267_1942" x1="285.901" y1="24.9161" x2="285.6" y2="-2.85913" gradientUnits="userSpaceOnUse">
<stop offset="0.3" stop-color="#4E1910"/>
<stop offset="0.63" stop-color="#783918"/>
<stop offset="0.79" stop-color="#8A471C"/>
</linearGradient>
<linearGradient id="paint90_linear_1267_1942" x1="501.846" y1="444.382" x2="501.846" y2="328.853" gradientUnits="userSpaceOnUse">
<stop offset="0.35" stop-color="#2241FB"/>
<stop offset="0.46" stop-color="#2048FB"/>
<stop offset="0.62" stop-color="#1C5DFB"/>
<stop offset="0.81" stop-color="#157EFB"/>
<stop offset="1" stop-color="#0EA5FB"/>
</linearGradient>
<linearGradient id="paint91_linear_1267_1942" x1="483.718" y1="448.08" x2="483.718" y2="352.758" gradientUnits="userSpaceOnUse">
<stop stop-color="#0E71FB"/>
<stop offset="0.23" stop-color="#156AF9"/>
<stop offset="0.56" stop-color="#2957F3"/>
<stop offset="0.97" stop-color="#4B39EA"/>
<stop offset="1" stop-color="#4E37EA"/>
</linearGradient>
<linearGradient id="paint92_linear_1267_1942" x1="515.706" y1="448.76" x2="515.727" y2="351.881" gradientUnits="userSpaceOnUse">
<stop stop-color="#225CFB"/>
<stop offset="0.21" stop-color="#1F63FB"/>
<stop offset="0.51" stop-color="#1A77FB"/>
<stop offset="0.89" stop-color="#1199FB"/>
<stop offset="1" stop-color="#0EA5FB"/>
</linearGradient>
<linearGradient id="paint93_linear_1267_1942" x1="499.784" y1="439.567" x2="499.784" y2="499.374" gradientUnits="userSpaceOnUse">
<stop stop-color="#F9FBFC"/>
<stop offset="0.38" stop-color="#EBF1FC"/>
<stop offset="1" stop-color="#CDDBFF"/>
</linearGradient>
<clipPath id="clip0_1267_1942">
<rect width="577" height="614" fill="white"/>
</clipPath>
</defs>
</svg>
